<?xml version="1.0" encoding="UTF-8"?>
<svg id="Layer_2" data-name="Layer 2" xmlns="http://www.w3.org/2000/svg" viewBox="0 0 400 483.14">
  <defs>
    <style>
      .cls-1 {
        fill: #91b5b1;
      }

      .cls-2 {
        fill: #196b61;
      }

      .cls-3 {
        fill: #1b534b;
      }

      .cls-4 {
        fill: #ef7b6b;
      }

      .cls-5 {
        fill: #c0ebea;
      }

      .cls-6 {
        fill: #330f09;
      }

      .cls-7 {
        fill: #66a19d;
      }

      .cls-8 {
        fill: #1c8a7d;
      }

      .cls-9 {
        fill: #cb482e;
      }

      .cls-10 {
        fill: #53aea7;
      }

      .cls-11 {
        fill: #0b1e1c;
      }

      .cls-12 {
        fill: #d5e2e1;
      }

      .cls-13 {
        fill: #616e5d;
      }

      .cls-14 {
        fill: #0d0e16;
      }

      .cls-15 {
        fill: #12383b;
      }

      .cls-16 {
        fill: #8d2e23;
      }

      .cls-17 {
        fill: #b2c4c2;
      }

      .cls-18 {
        fill: #2d5665;
      }

      .cls-19 {
        fill: #763322;
      }

      .cls-20 {
        fill: #4d7e75;
      }

      .cls-21 {
        fill: #071110;
      }

      .cls-22 {
        fill: #fffefe;
      }

      .cls-23 {
        fill: #6a1d14;
      }

      .cls-24 {
        fill: #fc9084;
      }

      .cls-25 {
        fill: #11413b;
      }

      .cls-26 {
        fill: #72c7bb;
      }

      .cls-27 {
        fill: #3bbcad;
      }

      .cls-28 {
        fill: #f1b8b2;
      }

      .cls-29 {
        fill: #177b6f;
      }

      .cls-30 {
        fill: #f4c9b3;
      }

      .cls-31 {
        fill: #fdae9a;
      }

      .cls-32 {
        fill: #5b301e;
      }

      .cls-33 {
        fill: #152e2a;
      }

      .cls-34 {
        fill: #e15e4d;
      }

      .cls-35 {
        fill: #1b100d;
      }

      .cls-36 {
        fill: #9c3116;
      }

      .cls-37 {
        fill: #376363;
      }

      .cls-38 {
        fill: #cc5249;
      }

      .cls-39 {
        fill: #fa6552;
      }

      .cls-40 {
        fill: #133e4a;
      }

      .cls-41 {
        fill: #379f95;
      }
    </style>
  </defs>
  <g id="Layer_1-2" data-name="Layer 1">
    <path class="cls-11" d="M173.87,45.99c12.45-.66-3.07,24.23-3.17,1.06.93.04,3-1.05,3.17-1.06Z"/>
    <g>
      <g>
        <path class="cls-11" d="M192.55,77c-2.68,50.08-.22,100.39-2.11,150.47,4.2,1.46.97,8,2.47,11.63l.35-11.63c6.62-2.46.91,8.12,3.88,10.92.64-4.79-.1-20.92,4.23-7.05l.7-4.93c1.71.68.39,14.2,2.82,12.69l-.35-13.04c4.09,1.99,1.03,8.61,2.47,12.33l1.41-11.98,1.76,14.45c-3.08,2.44-17.85-.08-18.68.35-.58.3-.35.92-.35,1.41.13.82-.69.66-.7.7-.4-3.06-1.3-1.86-1.41.35-.3,5.96.16,12.01,0,17.97-3.12.48.69,4.39-4.23,4.93,0-.05-.75.19-.7-.7.04-.7-.03-1.09,0-1.41.16-1.72,4.67-3.95,1.06-6.34-14.25-9.43-56.65-1.29-53.92,22.55,1.01,8.83,5.71,11.82,7.75,17.62,15.77,44.71-33.59,68.53-29.6,111.36-6.46,67.69,124.03,72.03,161.05,41.58,61.61-50.68-26.11-100.78-10.92-145.54,5.45-16.07,15.69-15.2,11.28-37-4.8-23.73-25.69-31.04-47.22-23.26-.2-.09-.52.09-.7,0-.86-.43-2.05-2.99-2.82-3.52,0-.6.55-.72.7-1.41.43-1.91-.04-2.51,2.82-2.82,1.21,1.3,4.35,1.23,5.29,0,.11-.14-.34-2.74-.35-3.52,1.02-2.91,1.76,3.39,2.47,3.52.58.11,11.36-1.89,11.63-2.47.14-4.96-1.74-8.75-2.82-13.04-1.53-6.1-3.57-12.13-4.93-18.32,4.89.41,2.42,9.77,5.64,12.69.13.42,1.07,2.18,1.41,2.82.59,3.99,1.88,14.67,4.23,16.92.13.13,1.11.53,1.41.7,10.05,5.84,21.38,7.12,26.78,21.14.44,1.15,1.23.47,1.41,1.06.12.41-3.71,5.37,1.41,6.7.08.22-.09.54,0,.7,2.99,5.08,7.15,3.44,12.33,4.93,6.47,1.86,8.37,5.52,15.86,2.11.31,4.55,1.94-.76,1.41,3.52-2.75,2.26-5.96,4.52-8.46,7.05-7.83,7.92-10.97,15.33-16.21,24.32v-4.93c-1.41,3.32-3.77,6.83-4.93,10.22-.16.47.38,1.45-.7,1.41-.57-4.18.17-6.4,1.06-10.57-2.78,3.82-5.46,7.64-7.4,11.98-.4.89-2.63,2.87-2.82,3.88-1.67,8.8,5.8,24.72,9.87,32.77.89,1.77,2.15,3.06,2.82,4.23,2.48,4.33,3.3,5.8,6.34,9.87,1.02,1.37,2.73,6.61,3.88,7.05,3.8,1.45,19.96-.71,25.37,1.41l-25.02,1.06c1.4,1,3.26,7.81,3.88,8.11.83.4,17.44,1.66,18.32,1.41,2.82-.81,9.37-15.48,10.92-18.68l-18.32-6.34c8.05-.94,17.36,4.35,25.02,3.17,7.81-1.2,18.41-17.06,23.61-22.91-.25-1.78-11.13-1.37-11.28-5.29,2.72.28,15.12-.03,15.51,3.17.65,5.45-17.28,24.24-22.2,27.84-1.58,1.15-8.32,3.31-9.16,4.23-1.33,1.45-.78,3.72-1.06,4.23-1.6,2.88-7.07,11.35-7.75,13.39-3.65,1.2-6.88.71-10.57.7-1.62,0-10.15-.94-10.57-.35-.23.33,1.85,7.45,2.11,7.75,1.08,1.19,2.34-.41,2.82-.35.61.07,1.88-.28,2.11.35-2.55,2.36-10.46,9.09-6.34,12.69.42.36,8.04-3.96,9.16-4.58l1.41,2.11c-.88.65-6,3.9-4.93,5.29,2.43,1.44,6.36.52,8.46,1.06-1.7,3.49-11.97-.24-13.39,1.76-.39.55-1.08,11.25-2.11,12.69.7,1.19,1.4.8,2.11,1.06,2.57.91,12.25,1.85,15.51,2.11l1.41,4.23c-.46-.04-.95.05-1.41,0-2.88-.35-5.97-1.51-8.81-2.11-.61-.13-3.68-1.08-3.17.7-10.34-4.09-6.86,2.47-12.69,10.22-1.26,1.67-9.85,9.17-9.87,9.87,2.15,7.36,32.19-3.27,33.48-5.29s-1.52-1.05-1.76-1.76l1.06-1.76c1.09-.06,1.92,1.29,2.47,1.41.1.02-.63,1.37,1.06,1.41.65.02,6.02-3.9,8.11-2.82-1.94,6.69-36.75,16.4-44.05,14.8-.97-.21-1.94-2.79-2.11-2.82-.67-.1-8.47,8.33-9.16,9.87l109.95,7.75c-83.32,7.69-167.81,9.17-251.61,7.05-35.12-.89-70.1-3.6-105.01-7.05l112.77-7.75c-.27-1.89-9.22-8.39-9.87-8.46-.56-.06-3.67,2.37-7.75,2.11-8.77-.54-32.24-6.28-38.76-11.98-1.99-1.74-1.62-3.39-1.76-3.52,4.85,2.88,4.38-1.23,7.4-2.82,2.82-1.49,7.98-3.88,10.92-4.93l-13.04,9.16c13.1,5.54,25.35,10.2,39.47,9.16-6.72-6.77-10.22-16.61-21.5-13.74,1.68-2.44,7.52.07,8.46-2.11.13-.3-2.17-5.85-2.47-5.99-.95-.44-.6,1.08-2.47,1.41h-14.8c3.92-1.85,10.88-1.2,12.33-2.11,1.78-1.12.7-2.92,1.06-3.52.06-.1,1.96,0,2.11-1.06,1.29-8.77-12.04-14.82-19.03-18.68-10.25-5.65-5.91-2.32-16.56-2.82-3.18-.15-7.41-.73-10.57-1.41-1.97-.42-3.7-.74-.35-1.41,20.83-1.04,6.71-6.3-4.23-4.58.85-2.46,11.2-.27,11.28-2.82-7.78-6.62-16.66-11.13-25.37-15.86-1.12-.61-3.21-2.61-4.93-3.17,4.88-.68,10.41,1.6,14.8,3.88,6.27,3.25,14.03,10.53,20.44,14.8,3.34,2.23,30.47,21.67,32.07,20.44.8-.93.1-2.52.35-3.52,3.09-12.14.9-8.59-7.75-14.1l.7-2.82c.2.06.47-.04.7,0,7.09,1.08,6.59-2.28,8.46-7.4-.94-1.93-3.35.36-3.52.35-3.97-.26-8.08-1.28-11.98.7-.34-.57-2.49-.57-.35-2.11,4.04-1.03,14.78,2.8,13.74-3.52,4.8-1.27,7.2-5.08,5.99-9.16l-25.02,1.06c-.37-2.44,25.86-1.97,27.13-2.47.71-.28,3.77-7.13,4.58-8.46,2.02-3.3,3.57-6.93,5.64-10.22-12.2-7.41-25.8-32.33-37-38.41-2.22-1.2-4.78-.41-5.99-.7-3.03-.74-4.85-.91-7.75-1.41-7.98-1.37-16.13-1.8-23.96-3.88l32.07,1.06c-2.56-3.6-5.88-6.57-8.81-9.87-3.84-4.32-5.72-8.15-11.28-10.57-6.71-2.93-15.49-2.67-22.55-4.58,6.28-1.28,14.72,1.14,20.79,3.17.18-3.07-4.55-5.53-5.99-7.05-3.01-3.16-5.71-6.42-9.16-9.16-9.77-7.74-13.99-4.01-23.96-8.46l15.15,2.11.7-1.41c-2.48-2.58-5.2-4.9-7.4-7.75-1.13-1.47-4.1-3.87-1.41-3.52,32.22,25.47,59.42,56.68,88.1,85.99,2.98,3.05,4.99,6.3,8.46,9.16.74.61,1.41,3.58,2.82,2.47,3.71-7.67,8.86-14.95,9.87-23.61,1.09-9.35-1.05-16.34-7.4-23.26-.82,2.03-.32,7.47-1.06,9.16l-5.64-13.04c-2.1-2.21-.06,5.03,0,5.29l-.7.7c-2.95-7.81-13.18-22.29-19.73-27.49.38-3.12-3.35-3.79-5.64-6.34,5.26.51,6.74.59,11.28-.7,3.07-.88,17.07-4.89,18.68-5.64,2.52-1.17,4.71-5.56,7.4-7.75,2.49-2.03,6.72-2.47,7.75-5.64,3.95-2.02,7.07-4.26,7.75-7.75.04-.22,0-.48,0-.7.04-1.51.95-.59-.7-2.82-.11-.15.12-.59,0-.7,8.63-6.92,7.65-18.18.7-26.08l-8.46-8.46c7.81-.44,7.08-3.19,11.28-8.46.62,3.14,2.71,2.65,2.82,2.82,1.12,1.72,1.31,2.44,2.82,4.23,1.27,1.5,4.78,4.94,6.34,6.34,1.41,1.27,4.27,5.47,6.7,4.93,7.9-10.93,11.75-28.34,9.51-41.58-.11-.63-.5-2-.7-2.82,1.4-.21.89-2.15,2.11-.35,3.67,5.38-4.07,25.37,7.75,17.97-1.56-35.41,6.47-77.4,3.52-112.06,4.7-2.74,1.24-8.67,4.23-11.98.25,1.05,1.45,6.36,1.41,6.7-.11.86-1.95.15-2.11,3.17Z"/>
        <g>
          <g>
            <path class="cls-10" d="M103.04,435.74c-2.94.51-5.66,1.11-8.46,2.11-2.94,1.06-8.1,3.45-10.92,4.93-3.02,1.59-2.55,5.7-7.4,2.82-.09-.09-.59-1.28-1.41-2.11,3.04-.73,7.64-2.62,10.22-4.23,1.62-1.01,2.5-3.21,3.17-3.52h14.8Z"/>
            <g>
              <path class="cls-26" d="M124.18,315.22c-.41.93-1.08,1.43-1.76,2.11-1.22,0-3.46-7.92-3.88-9.87-.06-.26-2.1-7.49,0-5.29l5.64,13.04Z"/>
              <path class="cls-12" d="M95.29,396.98l4.93-7.05c.18.01,2.58-2.28,3.52-.35-1.87,5.12-1.37,8.48-8.46,7.4Z"/>
              <path class="cls-33" d="M23.4,254.61v.7c-2.69-.35.28,2.06,1.41,3.52-.99.12-2.21-.81-2.82-1.41s-2.67-2.94-2.11-3.88c1.12-.9,2.53.89,3.52,1.06Z"/>
            </g>
          </g>
          <g>
            <path class="cls-10" d="M200.65,232.76c1.43-.88,2.45,5.69.7,6.34-3.1,1.16-.61-5.35-.7-6.34Z"/>
            <path class="cls-10" d="M190.78,232.06c.83,2.75-.07,5.7.7,8.46-1.86-.35-1.14-8.46-.7-8.46Z"/>
          </g>
        </g>
      </g>
      <g>
        <path class="cls-11" d="M69.21,375.13c-2.75.23-3.9-.13-5.64,2.11-3.09-2.27-18.63-3.68-23.26-4.23-6.21-.74-12.42-1.67-18.68-2.11-.56.31,4,10.8,4.58,11.98,6.35,12.94,5.32,10.43,19.38,10.57.36,0,1.05,0,1.41,0,3.46-.04,7.17-1.9,10.92.35l-24.32.35c.57,4.56,4.63,7.56,8.11,9.87,7.85,5.23,19.62,7.5,28.9,7.75-.8,3.87,3.68.57,3.52,3.52-3.06-.65-5.07-.35-7.75-.7-19.81-2.6-28.08-3.22-39.47-21.5-1.34-2.15-10.05-20.66-9.87-21.85.69-4.58,10.96-3.34,15.15-3.17,11.81.48,25.79,3.43,37,7.05Z"/>
        <path class="cls-8" d="M74.14,415.31c9.84,2.09,4.88,2.04-.35,5.64l14.45.35-16.92,4.93,5.29.35,16.56,4.23c-15.56,1.13-38.22,4.75-44.75-13.39l19.03-.7-1.06-1.41v-.7c2.68.35,4.69.06,7.75.7Z"/>
        <path class="cls-11" d="M66.39,415.31l1.06,1.41-19.03.7c6.53,18.14,29.19,14.52,44.75,13.39,2.82-.2,5.72-.02,8.46-.7-.36.61.73,2.4-1.06,3.52-1.46.92-8.41.27-12.33,2.11-.67.31-1.55,2.51-3.17,3.52-2.58,1.61-7.18,3.5-10.22,4.23-.16-.16-3.55-.62-4.23-1.76l8.46-4.23c-1.59-2.17-2.92-.15-4.93-.35-1.46-.14-3.52-.42-4.93-.7-12.14-2.42-20.18-8.8-25.37-20.09l22.55-1.06Z"/>
        <path class="cls-2" d="M88.94,397.69c.45,1.54-1.57,2.83-1.41,4.23-3.88.08-7.17-3.37-9.87-4.23-1.43-5.17-7.89-7.97-11.28-11.98-3.96-4.69,1.67-5.16-2.82-8.46,1.74-2.25,2.89-1.88,5.64-2.11.87-.07,1.96-.09,2.82,0,1.34.15,1.67-.73,1.76-.7,1.33.42,9.89,19.2,15.15,23.26Z"/>
        <path class="cls-41" d="M57.23,404.73c-.4.02-3.6-1.32-5.29-.7-2.02.74,1.11,3.19-1.41,3.52-1.67.22-6.51-4.26-8.81-3.52-3.47-2.31-7.54-5.3-8.11-9.87l24.32-.35c-3.76-2.25-7.47-.39-10.92-.35-.36,0-1.05,0-1.41,0-14.06-.14-13.03,2.37-19.38-10.57l12.33,2.82.35-4.23c8.71,4.72,17.59,9.23,25.37,15.86-.08,2.54-10.42.36-11.28,2.82,10.94-1.72,25.06,3.54,4.23,4.58Z"/>
        <path class="cls-3" d="M94.58,437.86c2.8-1.01,5.52-1.6,8.46-2.11,1.87-.32,1.52-1.85,2.47-1.41.29.14,2.59,5.69,2.47,5.99-.94,2.19-6.78-.32-8.46,2.11,11.28-2.87,14.78,6.97,21.5,13.74-14.12,1.03-26.37-3.62-39.47-9.16l13.04-9.16Z"/>
        <path class="cls-3" d="M101.63,430.11c-2.73.69-5.64.5-8.46.7l-16.56-4.23-5.29-.35,16.92-4.93-14.45-.35c5.24-3.59,10.19-3.55.35-5.64.15-2.95-4.32.34-3.52-3.52,4.42.12,9.71-.73,14.1-1.41,6.99,3.86,20.32,9.91,19.03,18.68-.16,1.07-2.05.96-2.11,1.06Z"/>
        <path class="cls-10" d="M40.31,373.02l15.86,7.05c1.81,1.29,3.47,2.99,5.29,4.23l-12.69-2.11c-4.39-2.27-9.92-4.56-14.8-3.88,1.73.56,3.81,2.56,4.93,3.17l-.35,4.23-12.33-2.82c-.58-1.18-5.14-11.67-4.58-11.98,6.25.44,12.47,1.38,18.68,2.11Z"/>
        <path class="cls-3" d="M77.67,397.69c2.7.86,5.99,4.31,9.87,4.23.47,4.2,11.37,7.45,14.1,11.98-.26,1.01.44,2.59-.35,3.52-1.59,1.23-28.72-18.21-32.07-20.44,2.77-.01,5.79-.14,8.46.7Z"/>
        <path class="cls-8" d="M61.45,384.29c1.35.92,5.13,4.49,4.93,1.41,3.38,4.01,9.85,6.81,11.28,11.98-2.67-.85-5.69-.72-8.46-.7-6.41-4.27-14.17-11.55-20.44-14.8l12.69,2.11Z"/>
        <path class="cls-8" d="M57.23,404.73c-3.34.67-1.62.99.35,1.41,3.16.68,7.39,1.26,10.57,1.41,10.65.5,6.32-2.84,16.56,2.82-4.39.68-9.68,1.53-14.1,1.41-9.28-.25-21.04-2.52-28.9-7.75,2.3-.74,7.14,3.75,8.81,3.52,2.52-.34-.61-2.79,1.41-3.52,1.69-.62,4.89.72,5.29.7Z"/>
        <path class="cls-25" d="M93.88,399.8c8.66,5.51,10.85,1.96,7.75,14.1-2.72-4.53-13.62-7.79-14.1-11.98-.16-1.4,1.86-2.69,1.41-4.23,2,1.54,4.21,1.65,4.93,2.11Z"/>
        <path class="cls-26" d="M63.57,377.25c4.49,3.3-1.14,3.77,2.82,8.46.19,3.08-3.59-.49-4.93-1.41-1.81-1.24-3.48-2.94-5.29-4.23l-15.86-7.05c4.62.55,20.17,1.96,23.26,4.23Z"/>
        <g>
          <path class="cls-11" d="M41.72,302.54l-16.21,3.17c6.67,29.96,33.95,23.64,57.09,28.9l-35.59,5.99c2.94,6.9,15.62,24.13,23.26,24.67,6.21.44,18.4-5.74,25.37-5.64-4.8,5.45-12.56,6.19-19.03,8.46-1.47,1.71,7.39,17.69,9.87,18.32.94.24,13.61-1,15.15-1.41,1.03,6.33-9.7,2.49-13.74,3.52-2.13,1.55,0,1.54.35,2.11.6,1,5.37,6.05,6.34,6.34l-.7,2.82c-.73-.46-2.94-.58-4.93-2.11-5.26-4.05-13.82-22.83-15.15-23.26-.09-.03-.42.85-1.76.7-3.53-3.17,3.14-.76-.35-3.52-1.16-.92-5.26-1.91-6.34-2.82-4.08-3.42-24.09-25.21-23.61-29.25s17.89-2.35,21.14-4.23c-10.05-.65-20.35-.81-28.54-7.4-3.68-2.96-16.92-21.66-13.04-25.37,2.03-1.95,16.79,0,20.44,0Z"/>
          <path class="cls-30" d="M53,301.13c-.07.02.25,1.27-.35,1.41-4.21.94-7.34,0-10.92,0s-18.41-1.95-20.44,0c.23-3.05,7.92-.48,8.46-4.23,7.12,1.66,15.92,2.79,23.26,2.82Z"/>
          <path class="cls-41" d="M16.35,265.89c9.98,4.44,14.2.72,23.96,8.46l.7,3.88-5.29-.35v2.11c3.68.58,10.46,6.16,13.74,3.52,1.45,1.51,6.18,3.97,5.99,7.05-6.07-2.03-14.51-4.45-20.79-3.17,7.07,1.91,15.84,1.66,22.55,4.58l-.35,2.82c-2.98-.82-6.83-.75-9.87-.7-8.36.14-10.91-.15-20.44-2.11-.64-.13-3.67-1.08-3.17.7-6.22-2.57-12.71-22.79-14.8-29.6,2.92-4.23,5.62,1.87,7.75,2.82Z"/>
          <path class="cls-25" d="M114.31,365.97c.02-.96-.73-.68-1.41-.7.31-1.59-.7-1.07-1.41-2.11-3.74-5.5-7.55-11.46-14.8-11.98l-1.41-2.11c1.25-.38,7.71-1.49,7.75-2.47-9.15-5.82-20.82-1.11-31.01-2.82l24.67-2.11c.57-.7-10.83-13.33-11.63-13.74-6.49-3.31-25.75-.97-33.83-2.11-.46-1.56,1.32-1.29,2.11-1.41,2.46-.38,10.78.09,14.45,0,.48-.01,6.86,1.03,7.4.7,1.28-.77.37-6.96,1.76-8.46,1.22.3,3.77-.5,5.99.7,11.21,6.08,24.8,31,37,38.41-2.06,3.29-3.62,6.92-5.64,10.22Z"/>
          <path class="cls-27" d="M98.1,280.69c6.55,5.2,16.78,19.68,19.73,27.49.33.88,1.97,3.18,1.41,3.88-3.27.33-4.65.43-6.7,3.17-2.63.01-4.59-22.89-11.63-15.86l-1.06-5.99-1.41,7.75c-2.97-2.09-1.37-5.18-5.99-4.93,1.87-5.61,3.15-11.21,2.82-17.27.82-.18,2.11,1.2,2.82,1.76Z"/>
          <path class="cls-8" d="M121.36,344.12c-.31,2.36.76,4.26-1.41,6.34-3.47-2.87-5.47-6.11-8.46-9.16,3.15-2.67,3.33-15.26,5.64-17.27.58-.51,4.68,2.07,6.7-1.06.11,7.16-1.54,14.12-2.47,21.14Z"/>
          <path class="cls-10" d="M7.89,246.15c-.32,3.74,2.16,5.69,3.52,9.87.02.06-1.97-.27-1.06.7,2.08-.77,8.68,3.59,9.16,3.52.61-.08.25-1.33.35-1.41.64-.49,1.38-1.06,2.11-1.41.61.6,1.83,1.53,2.82,1.41,2.2,2.85,4.92,5.17,7.4,7.75l-.7,1.41-15.15-2.11c-2.13-.95-4.84-7.05-7.75-2.82-.77-2.52-5.21-15.75-3.88-16.92,1.05-.06,2.13.09,3.17,0Z"/>
          <path class="cls-2" d="M57.23,291.97c5.55,2.42,7.43,6.25,11.28,10.57-4.62,1.42-7.24-.69-10.57-2.11-.41-.18,1.16-1.03.35-1.41-8.45-4.02-25.89-2.63-34.89-6.34-.5-1.78,2.54-.84,3.17-.7,9.53,1.96,12.08,2.25,20.44,2.11,3.03-.05,6.88-.11,9.87.7l.35-2.82Z"/>
          <path class="cls-2" d="M132.64,329.32c-1.01,8.66-6.16,15.95-9.87,23.61-1.41,1.11-2.08-1.86-2.82-2.47,2.17-2.08,1.1-3.98,1.41-6.34l9.87-18.68,1.41,3.88Z"/>
          <path class="cls-2" d="M76.96,316.63c-1.39,1.5-.49,7.69-1.76,8.46-.54.32-6.92-.72-7.4-.7-2.21-4.08,1.86-5.11,1.41-9.16,2.9.5,4.72.67,7.75,1.41Z"/>
          <path class="cls-29" d="M49.47,283.51c-3.29,2.63-10.07-2.95-13.74-3.52v-2.11l5.29.35-.7-3.88c3.46,2.74,6.15,6.01,9.16,9.16Z"/>
          <path class="cls-8" d="M100.22,389.93l-4.93,7.05c-.24-.04-.5.06-.7,0-.97-.29-5.74-5.35-6.34-6.34,3.91-1.99,8.01-.97,11.98-.7Z"/>
          <path class="cls-26" d="M86.12,297.6c-3.79-2.01-1.5-8.69-2.11-12.33l-2.82,4.23c-.41-1.62-4.81-18.87-5.99-17.97-.46,2.96-.14,4.47-2.82,6.34l-.35-5.29-3.17,3.17c-2.81-4.83-4.92-9.29-10.22-11.98-9.78-11.29-26.72-8.79-38.76-16.92,24.44,2.22,41.84,12.64,63.08,23.26,4.52,8.73,3.93,18.1,3.17,27.49Z"/>
          <path class="cls-26" d="M19.87,246.86c12.04,8.13,28.99,5.63,38.76,16.92.11,3.07,3.22,5.68,0,8.46-1.18-1.62-5.3-6.51-7.05-7.05-.49-.15-.67.75-1.76.7-.28-.01-1.14-1.41-1.41-1.41-.75,0,.47,1.91-1.41,2.11-.53.06-6.79-5.5-8.46-6.34-4.28-2.17-10.43-4.86-15.15-5.64-.99-.16-2.41-1.95-3.52-1.06-.55.94,1.52,3.29,2.11,3.88-.73.35-1.48.92-2.11,1.41-2.96-1.34-4.97-4.65-8.46-2.82-1.37-4.18-3.85-6.13-3.52-9.87,2.52-.22,9.11.44,11.98.7Z"/>
          <g>
            <path class="cls-11" d="M27.62,243.33c3.34.5,14.32,3.79,18.32,4.93,4.46,1.27,11.11,2.61,15.15,4.23,2.54,1.02,12.53,8.4,14.1,8.46.38.01,1.74-2.48,2.82-2.11.77.26-4.06,6.04,5.99,2.82.64-.08.62.19.7.7.03.16.06.57,0,.7-.16.38-1.92.06-.7,2.11,1.48,2.52,3.44,2.14,5.99,2.11-3.01,5.09.9,3.96,1.06,4.23.47.83.9,2.25,1.41,2.82,2.29,2.55,6.02,3.22,5.64,6.34-.71-.57-1.99-1.94-2.82-1.76.33,6.06-.95,11.65-2.82,17.27-1.77,5.32-3.95,9.04-7.4,13.39-1.33-4.08.74-8.08,1.06-11.98.76-9.39,1.35-18.76-3.17-27.49-21.24-10.62-38.64-21.04-63.08-23.26-2.87-.26-9.46-.92-11.98-.7-1.04.09-2.12-.06-3.17,0-1.33,1.17,3.11,14.4,3.88,16.92,2.09,6.81,8.58,27.03,14.8,29.6,9,3.72,26.44,2.33,34.89,6.34.81.38-.76,1.23-.35,1.41-1.52,1.33-3.52.31-4.93.7-7.34-.03-16.14-1.16-23.26-2.82-1.68-.39-9.66-1.84-10.22-2.11-5.53-2.74-22.61-51.02-19.03-53.56,9.03.26,18.16-.64,27.13.7Z"/>
            <path class="cls-3" d="M90.7,281.39l-.7,8.46c-1.4-2.99-.43-5.51.7-8.46Z"/>
          </g>
          <g>
            <path class="cls-8" d="M68.5,302.54c2.93,3.3,6.25,6.27,8.81,9.87l-32.07-1.06c7.83,2.08,15.98,2.51,23.96,3.88.45,4.06-3.62,5.08-1.41,9.16-3.67.09-11.99-.38-14.45,0-.8.12-2.57-.15-2.11,1.41,8.08,1.14,27.34-1.2,33.83,2.11.8.41,12.2,13.04,11.63,13.74l-24.67,2.11c10.2,1.71,21.86-3,31.01,2.82-.04.98-6.51,2.09-7.75,2.47-12.26,3.73-24.08,3.99-36.65,5.99,12.11,4.62,26.5-4.71,38.06-3.88,7.25.52,11.07,6.48,14.8,11.98l-15.51,3.88c6,.35,10.64-1.98,16.92-1.76.68.02,1.43-.26,1.41.7-.81,1.32-3.87,8.18-4.58,8.46-1.27.5-27.51.03-27.13,2.47l25.02-1.06c1.21,4.09-1.19,7.89-5.99,9.16-1.55.41-14.21,1.65-15.15,1.41-2.47-.63-11.34-16.62-9.87-18.32,6.47-2.27,14.23-3.01,19.03-8.46-6.97-.11-19.16,6.08-25.37,5.64-7.63-.54-20.32-17.77-23.26-24.67l35.59-5.99c-23.14-5.26-50.42,1.07-57.09-28.9l16.21-3.17c3.58,0,6.71.94,10.92,0,.6-.13.28-1.39.35-1.41,1.41-.4,3.41.62,4.93-.7,3.34,1.43,5.95,3.54,10.57,2.11Z"/>
            <path class="cls-11" d="M96.69,351.17c-11.56-.84-25.95,8.49-38.06,3.88,12.57-2,24.39-2.26,36.65-5.99l1.41,2.11Z"/>
            <path class="cls-15" d="M112.9,365.26c-6.28-.22-10.92,2.12-16.92,1.76l15.51-3.88c.71,1.05,1.72.52,1.41,2.11Z"/>
            <path class="cls-2" d="M53.35,306.77c1.11-.05,4.49-.66,4.58,1.06l-8.81.35c.21-.54,4.01-1.4,4.23-1.41Z"/>
          </g>
          <g>
            <path class="cls-41" d="M51.59,265.18c2.32,6.78,8.81,11.31,12.33,17.62-.54-3.48-3.25-7.78-5.29-10.57,3.22-2.78.11-5.39,0-8.46,5.3,2.69,7.41,7.15,10.22,11.98l3.17-3.17.35,5.29c2.68-1.87,2.36-3.38,2.82-6.34,1.18-.9,5.58,16.36,5.99,17.97l2.82-4.23c.61,3.65-1.67,10.32,2.11,12.33-.32,3.9-2.39,7.9-1.06,11.98,3.45-4.36,5.63-8.07,7.4-13.39,4.62-.25,3.02,2.84,5.99,4.93l1.41-7.75,1.06,5.99c7.04-7.03,9,15.87,11.63,15.86,2.05-2.74,3.43-2.85,6.7-3.17.56-.7-1.08-3-1.41-3.88l.7-.7c.42,1.94,2.66,9.86,3.88,9.87.69-.68,1.35-1.19,1.76-2.11.74-1.69.24-7.13,1.06-9.16,6.35,6.92,8.49,13.91,7.4,23.26l-1.41-3.88-9.87,18.68c.93-7.03,2.58-13.99,2.47-21.14-2.02,3.12-6.11.55-6.7,1.06-2.31,2.01-2.49,14.59-5.64,17.27-28.68-29.3-55.88-60.51-88.1-85.99v-.7c4.72.78,10.88,3.47,15.15,5.64,1.66.84,7.93,6.4,8.46,6.34,1.88-.2.66-2.12,1.41-2.11.27,0,1.13,1.4,1.41,1.41,1.09.05,1.27-.86,1.76-.7Z"/>
            <path class="cls-3" d="M58.64,272.23c2.03,2.79,4.74,7.09,5.29,10.57-3.52-6.31-10.02-10.84-12.33-17.62,1.75.54,5.87,5.43,7.05,7.05Z"/>
            <path class="cls-33" d="M99.16,311c1.78,3.07,2.01,8.58,1.41,11.98-2.15-3.04-.66-8.35-1.41-11.98Z"/>
            <path class="cls-8" d="M110.44,325.09l-.7,9.87c-.69-4.08-1.87-6.36.7-9.87Z"/>
            <path class="cls-15" d="M67.45,275.76c.59.69.51,5.63,0,5.64-.19-1.96-2.08-4.19,0-5.64Z"/>
          </g>
          <path class="cls-8" d="M19.87,258.84c-.1.08.25,1.33-.35,1.41-.49.07-7.08-4.3-9.16-3.52-.91-.98,1.08-.64,1.06-.7,3.49-1.83,5.5,1.48,8.46,2.82Z"/>
        </g>
      </g>
      <g>
        <path class="cls-8" d="M336.33,335.66c1.98.16,4.3.5,6.34.7.15,3.91,11.03,3.51,11.28,5.29-5.2,5.84-15.8,21.71-23.61,22.91-7.66,1.18-16.97-4.11-25.02-3.17l18.32,6.34c-1.56,3.2-8.1,17.87-10.92,18.68-.88.25-17.5-1.01-18.32-1.41-.61-.3-2.48-7.11-3.88-8.11l25.02-1.06c-5.42-2.12-21.57.04-25.37-1.41-1.14-.44-2.85-5.68-3.88-7.05,5.23-4.02,12.99-.21,19.03-1.06l-14.8-2.82c1.94-5.97,7.63-8.57,11.28-12.33,12.5-.49,24.66,8.09,37.35,3.88-11.36-2.68-25.24-1.87-35.94-6.7-1.08-.49-3.14-1.1-3.52-2.47.71-3.01,25.56-1.31,29.6-1.41l-23.96-2.82c-.69-.87,10.26-13.9,11.63-14.45,7.57-3.02,25.94-.36,34.54-1.41-6.75-2.33-13.9-.96-20.79-1.41,1.87-2.47,2.56-5.61,1.41-8.46,7.96-1.34,16.09-3.3,23.96-4.58-.13-.69-2.11-.19-2.82-.35-1.62-.37-4.54-.49-4.23-2.11,2.22-.12,5.56.85,6.34-1.41,2.28-.32,7.08-.76,7.05-3.52,9.62,2.82,18.31-3.71,7.75,12.33-12.12,18.42-31.44,14.57-50.75,17.62,5.05,2.22,11.62,1.34,16.92,1.76Z"/>
        <path class="cls-11" d="M315.18,435.74l-1.41-4.23c16.44,1.34,27.31-.35,38.76-13.04-.31-2.22-21-3.4-23.61-3.88-.68-.12-.02-1.99-.7-2.11-3.96-.73-9.26.06-13.39-.7-.69-.35.49-1.34.7-1.41,5.16-1.67,23.62-.35,31.72-2.11,6.91-1.51,9.54-3.39,14.45-7.75,8.12-7.22,14.03-18.4,17.62-28.54-.87-2.46-34.41,3.17-37.71,5.29-2.27,1.46-4.74,7.67-7.05,9.87,9.32-4.1,19.57-8.1,29.95-6.7-17.49,4.12-30.93,12.16-45.81,21.5-3.18,2-7.57,3.42-10.57,5.64l-1.41-2.11c3.88-2.16,7.69-5.12,11.28-7.75,2.5-1.84,6.48-3.47,8.11-4.93,4.53-4.08,7.35-12.13,13.04-15.86-2.82-.11-5.71-.76-8.46-1.06,16.29-5.88,33.77-8.14,51.1-7.75-1.77,26.74-23.45,49.1-51.8,44.75l25.02,2.47c2.49,1.73-5.53,11.33-7.05,12.69-9.81,8.77-20.46,8.9-32.77,7.75Z"/>
        <path class="cls-11" d="M352.54,301.13c-2.32.1-4.75-.2-7.05,0l-3.52-1.76c16.14-6.28,38.54,1.01,44.4-20.44l-7.05-.7c10.29-.69,12.93-14.87,14.8-23.61.29-1.35,2.71-7.79,1.06-8.46-6,.16-12.04.68-17.97,1.41-7.9.98-17.86,2.69-24.67,6.34-1.57.17-2.01.68-2.11.7-10.6,2.11-25.02,11.47-34.54,17.62-1.67,1.08-5.35,2.18-6.34,4.58-3.02,7.28,3.78,23.59,6.34,31.01-5.03-3.9-8.07-10.38-9.16-16.56-.92-5.24-.65-8.9,0-14.1.53-4.29-1.1,1.03-1.41-3.52,1.71-.78,3.06-2.82,4.23-4.23.74-.9,1.85-1.66,2.11-2.82,3.42.33,5.03-1.64,7.75-2.82.05-.02-.23-.26.7-.7,1.28-.6,2.79,1.67,4.23-1.06l-10.92-4.58c7.09-.31,11.75,5.74,17.97.7.94-.76.79-.93.7-2.11,6.72-3.58,13.83-5.21,21.14-7.05,5.43-1.36,13.18-4.06,18.32-4.93,9.07-1.55,18.7-2.64,27.84-1.41,2.2,1.19-2.34,17.24-3.17,20.09-1.38,4.73-11.6,30.8-14.45,32.77-3.74,2.6-23.7,3.93-29.25,5.64Z"/>
        <path class="cls-11" d="M336.33,335.66c-5.29-.42-11.87.46-16.92-1.76,19.31-3.05,38.63.8,50.75-17.62,10.56-16.05,1.87-9.52-7.75-12.33-1-.29-3.23-.69-2.82-2.11,3.04.08,18.75-.64,19.73,2.47.74,2.33-4.72,13.13-6.34,15.51-8.99,13.19-21.55,15.2-36.65,15.86Z"/>
        <path class="cls-8" d="M352.54,301.13c.99-.04,5.1.65,7.05.7-.41,1.43,1.82,1.82,2.82,2.11.03,2.76-4.76,3.2-7.05,3.52-1.02.14-18.84-.06-15.15,2.11.38.22,7.47-.63,8.81-.7-.31,1.62,2.61,1.74,4.23,2.11l-29.25,1.41-1.06-1.06c2.06-1.05,5.7-6.77,7.4-7.4.21-.08,2.67.51,4.58,0,1.74-.47,10.01-2.77,10.57-2.82,2.3-.2,4.73.1,7.05,0Z"/>
        <path class="cls-8" d="M330.69,375.84c2.75.29,5.64.95,8.46,1.06-5.69,3.73-8.51,11.78-13.04,15.86-1.62,1.46-5.6,3.1-8.11,4.93-.87-1.13-.27-7.65,0-8.46.68-2.04,6.15-10.51,7.75-13.39,1.62.12,3.33-.17,4.93,0Z"/>
        <path class="cls-41" d="M313.77,435.74v.7c-.73,0-1.63-.25-2.11.35-.1.68,11.29,6.67,11.98,6.7-.09.67.16,1.56,0,2.11-2.08-1.08-7.46,2.84-8.11,2.82-1.68-.04-.96-1.39-1.06-1.41l2.47-2.11c-5.19-3.5-9.14-8.19-15.15-10.57-.5-1.78,2.56-.84,3.17-.7,2.84.61,5.93,1.77,8.81,2.11Z"/>
        <path class="cls-11" d="M313.77,436.45c1.14,0,12.66,3.65,13.04,4.23,1.19,1.3-2.96,2.83-3.17,2.82-.69-.02-12.08-6.01-11.98-6.7.48-.6,1.38-.35,2.11-.35Z"/>
        <path class="cls-8" d="M361.7,400.5c-4.91,4.36-7.54,6.25-14.45,7.75-8.1,1.77-26.56.45-31.72,2.11-.21.07-1.4,1.06-.7,1.41,4.13.76,9.43-.02,13.39.7.68.12.02,1.99.7,2.11,2.61.48,23.3,1.66,23.61,3.88-11.45,12.69-22.32,14.38-38.76,13.04-3.26-.27-12.94-1.21-15.51-2.11,7.02-9.72,22.3-1.64,32.42-5.29l-17.97-3.88c-2.8-2.81,11.31-.06,10.92-2.47-3.92-.84-8.26-2.93-11.98-3.88-2.09-.53-6.03.39-8.46-1.06-1.07-1.38,4.06-4.64,4.93-5.29,3-2.22,7.39-3.64,10.57-5.64l1.41,1.41c-.65.29-2.96-.66-1.76,1.41,5.35-1.33,10.83-.31,16.21-.7.27-.02,5.58-1.53,1.76-2.11.07,0-.23-1.37.35-1.41,3.91-.24,11.01,1.32,13.74-1.41,3.68.33,7.65.66,11.28,1.41Z"/>
        <path class="cls-25" d="M322.93,316.63c.09,2.35,1.5,7.89,3.88,8.46.19.05,2.01-.83,3.88-.7,6.89.45,14.05-.92,20.79,1.41-8.6,1.05-26.97-1.61-34.54,1.41-1.37.55-12.32,13.58-11.63,14.45l23.96,2.82c-4.04.1-28.9-1.6-29.6,1.41.38,1.37,2.44,1.98,3.52,2.47-.85.6-1.3,2.71-1.41,2.82-3.65,3.77-9.34,6.37-11.28,12.33l14.8,2.82c-6.04.85-13.8-2.96-19.03,1.06-3.05-4.07-3.86-5.54-6.34-9.87,5.37-3.82,8.41-10.05,12.69-14.8,2.89-3.21,23.34-25.42,25.02-26.08,1.01-.4,3.88.29,5.29,0Z"/>
        <path class="cls-25" d="M301.79,434.33c6.01,2.38,9.96,7.07,15.15,10.57l-2.47,2.11c-.54-.12-1.38-1.47-2.47-1.41l-1.06,1.76c.24.71,3.06-.26,1.76,1.76s-31.33,12.64-33.48,5.29c.01-.7,8.61-8.2,9.87-9.87,5.82-7.75,2.34-14.31,12.69-10.22Z"/>
        <path class="cls-27" d="M304.61,289.85c-.24,4.26.68,4.97.7,8.81.05,9.34-6.96-1.98-5.99-5.99-3.11,2.39-6.89,14.66-8.46,16.21-.25.25-1.85-.25-2.11,0-1.8,1.68-5.56,5.44-7.75,4.93-1.09-.25,1.32-3.88-3.88,0,1.16-3.39,3.52-6.9,4.93-10.22v4.93c5.24-8.98,8.38-16.39,16.21-24.32,4.33.26-.65.92,1.76,2.82l4.23-1.41c.61.53.41,3.25.35,4.23Z"/>
        <path class="cls-3" d="M298.27,429.4c-.71-.25-1.41.14-2.11-1.06,1.03-1.43,1.72-12.13,2.11-12.69,1.42-2,11.69,1.72,13.39-1.76,3.72.95,8.06,3.04,11.98,3.88.39,2.4-13.72-.34-10.92,2.47l17.97,3.88c-10.12,3.65-25.41-4.43-32.42,5.29Z"/>
        <path class="cls-25" d="M318,389.23c-.27.8-.87,7.33,0,8.46-3.58,2.63-7.4,5.59-11.28,7.75-1.12.63-8.75,4.95-9.16,4.58-4.11-3.6,3.79-10.33,6.34-12.69-.23-.63-1.51-.28-2.11-.35l5.64-7.05c3.7,0,6.93.5,10.57-.7Z"/>
        <path class="cls-8" d="M276.42,315.22c.48,3.56,2,5.24,2.11,5.64-2.69,4.83-1.66,10.25-1.41,15.51l-.7,4.58c-3.73-7.03-6.44-16.12-6.34-24.32,1.94-4.34,4.62-8.16,7.4-11.98-.89,4.17-1.62,6.39-1.06,10.57Z"/>
        <path class="cls-2" d="M277.12,336.37c.24,5.15,1.22,10.34,1.41,15.51-.09.04-.62,1.62-1.41,1.41-4.06-8.06-11.53-23.97-9.87-32.77.19-1.01,2.42-2.99,2.82-3.88-.1,8.19,2.62,17.28,6.34,24.32l.7-4.58Z"/>
        <path class="cls-25" d="M292.63,342.71c-4.27,4.75-7.31,10.98-12.69,14.8-.67-1.17-1.93-2.46-2.82-4.23.79.21,1.32-1.37,1.41-1.41,1.67-.64.57.77,3.52-2.11,2.68-2.62,5.19-5.7,7.75-8.46l2.82,1.41Z"/>
        <path class="cls-8" d="M307.43,389.93l-5.64,7.05c-.48-.06-1.74,1.55-2.82.35-.27-.3-2.35-7.43-2.11-7.75.42-.59,8.95.35,10.57.35Z"/>
        <path class="cls-26" d="M306.72,277.16c-.65,5.2-.92,8.85,0,14.1l-2.11-1.41c.05-.98.25-3.7-.35-4.23l-4.23,1.41c-2.41-1.9,2.57-2.56-1.76-2.82,2.5-2.53,5.71-4.79,8.46-7.05Z"/>
        <path class="cls-11" d="M379.32,256.73c-4.34,4.27-34.7,29.38-35.24,32.07-.19.93-.19,1.97,1.06,1.76,5.21-2.02,11.68-4.35,17.27-3.88-12.26,3.68-23.12,4.34-31.01,15.51l3.52,1.76c-1.91.51-4.37-.08-4.58,0-1.7.63-5.34,6.35-7.4,7.4l1.06,1.06,29.25-1.41c.71.16,2.69-.34,2.82.35-7.87,1.28-16,3.24-23.96,4.58-2.6.44-5.65-.02-9.16.7-1.41.29-4.27-.4-5.29,0-1.68.66-22.13,22.86-25.02,26.08l-2.82-1.41c16.86-18.2,37.44-37.63,52.86-56.38,4.08-4.31,10.93-9.25,14.1-14.1,6.37-3.88,11.4-10.06,17.62-14.1,2.44-1.58,5.43-3,8.11-4.23-.39,1.28-2.22,3.29-3.17,4.23Z"/>
        <path class="cls-11" d="M301.79,351.17c.11-.11.56-2.22,1.41-2.82,10.7,4.82,24.59,4.01,35.94,6.7-12.69,4.22-24.86-4.36-37.35-3.88Z"/>
        <path class="cls-3" d="M332.1,315.93c1.15,2.84.46,5.99-1.41,8.46-1.87-.12-3.68.75-3.88.7-2.37-.57-3.79-6.11-3.88-8.46,3.52-.72,6.56-.27,9.16-.7Z"/>
        <path class="cls-2" d="M355.35,307.47c-.78,2.26-4.13,1.29-6.34,1.41-1.34.07-8.43.93-8.81.7-3.68-2.18,14.14-1.97,15.15-2.11Z"/>
        <path class="cls-41" d="M361.7,400.5c-3.63-.75-7.6-1.08-11.28-1.41-6.03-.54-13.33-2.37-18.32,2.11-4.22.45-7.96.32-11.98,2.11l-1.41-1.41c14.89-9.34,28.32-17.37,45.81-21.5-10.39-1.4-20.64,2.6-29.95,6.7,2.31-2.2,4.78-8.41,7.05-9.87,3.3-2.12,36.84-7.74,37.71-5.29-3.59,10.14-9.5,21.33-17.62,28.54Z"/>
        <path class="cls-41" d="M394.12,254.61c-1.87,8.75-4.51,22.92-14.8,23.61l7.05.7c-5.86,21.45-28.27,14.16-44.4,20.44l3.52,1.76c-.56.05-8.83,2.35-10.57,2.82l-3.52-1.76c7.89-11.16,18.75-11.83,31.01-15.51-5.59-.47-12.06,1.85-17.27,3.88-1.25.21-1.24-.84-1.06-1.76.54-2.68,30.9-27.8,35.24-32.07l1.06,3.52c3.14-7.33,7.26-1.98,10.57-2.82,1.07-.27,1.09-3.36,3.17-2.82Z"/>
        <path class="cls-26" d="M350.42,254.61c-4.18,3.42-6.75,3.78-9.87,8.46-3.23,3.09-5.55,4.28-6.34,8.46-2.39-3.64-2.57,3.51-3.88,3.52-1.04.01-.97-3.3-2.11-3.52-1.24-.24-11.14,12.46-9.87,14.8-4.31-2.79,1.77-10.58-2.47-14.1,9.52-6.15,23.94-15.51,34.54-17.62Z"/>
        <path class="cls-27" d="M358.17,258.14c-.36,1.32-1.12,3.57-.7,4.93-1.27.62-2.1,1.65-2.82,2.82-5.82,2.51-5.45-1.89-5.99-2.11-.99-.41-9.37,13.29-10.57,14.8l-1.76-3.52c1.39-3.93,1.59-8.02,4.23-11.98,3.12-4.68,5.69-5.04,9.87-8.46.11-.02.55-.54,2.11-.7,2.48-.27,4.87-.92,7.4-.7,1.42.82-1.46,3.83-1.76,4.93Z"/>
        <path class="cls-10" d="M394.12,254.61c-2.08-.54-2.1,2.55-3.17,2.82-3.31.83-7.43-4.51-10.57,2.82l-1.06-3.52c.95-.93,2.78-2.94,3.17-4.23-2.67,1.23-5.66,2.64-8.11,4.23-.15-4.22-1.67.22-3.52-2.82l6.34-6.34c5.94-.73,11.97-1.25,17.97-1.41,1.66.67-.77,7.11-1.06,8.46Z"/>
        <path class="cls-26" d="M377.2,247.56l-6.34,6.34c-1.55,1.78-10.34,8.53-11.98,6.7l-.7-2.47c.3-1.1,3.19-4.11,1.76-4.93-2.53-.22-4.93.44-7.4.7,6.8-3.66,16.77-5.37,24.67-6.34Z"/>
        <path class="cls-3" d="M282.06,349.76c-2.95,2.88-1.85,1.47-3.52,2.11-.19-5.17-1.17-10.35-1.41-15.51s-1.28-10.68,1.41-15.51c.02.08,1.17.38,1.41,1.06,1.73,4.82-1.23,21.46,2.11,27.84Z"/>
        <path class="cls-8" d="M356.76,270.82c-3.17,4.84-10.02,9.79-14.1,14.1,6.43-7.82,7.34-11.5,11.98-19.03.72-1.17,1.55-2.2,2.82-2.82.76-.37,1.39-1.21,2.11-.35-1.49,4.16.38,3.22-2.82,8.11Z"/>
        <g>
          <path class="cls-41" d="M354.65,265.89c-4.64,7.53-5.55,11.21-11.98,19.03-15.42,18.75-36,38.19-52.86,56.38-2.56,2.76-5.07,5.84-7.75,8.46-3.35-6.38-.39-23.01-2.11-27.84-.24-.68-1.39-.97-1.41-1.06-.11-.39-1.63-2.08-2.11-5.64,1.08.04.54-.94.7-1.41,5.2-3.88,2.79-.25,3.88,0,2.19.5,5.96-3.25,7.75-4.93.26-.25,1.86.25,2.11,0,1.56-1.55,5.35-13.82,8.46-16.21-.97,4.01,6.04,15.33,5.99,5.99-.02-3.84-.94-4.55-.7-8.81l2.11,1.41c1.09,6.18,4.13,12.66,9.16,16.56-2.57-7.43-9.36-23.73-6.34-31.01.99-2.4,4.67-3.5,6.34-4.58,4.24,3.52-1.85,11.31,2.47,14.1-1.27-2.34,8.62-15.04,9.87-14.8,1.14.22,1.08,3.54,2.11,3.52,1.31-.02,1.49-7.17,3.88-3.52-.49,2.58.99,2.04.7,3.17-1.08,4.29-3.74,8.65-3.52,13.39,1.89-4.16,3.41-8.73,4.93-13.04l1.76,3.52c1.2-1.51,9.58-15.21,10.57-14.8.54.22.17,4.63,5.99,2.11Z"/>
          <path class="cls-29" d="M336.33,275.05c-1.52,4.31-3.05,8.88-4.93,13.04-.22-4.74,2.44-9.1,3.52-13.39.28-1.13-1.2-.59-.7-3.17.8-4.17,3.12-5.37,6.34-8.46-2.64,3.96-2.84,8.06-4.23,11.98Z"/>
          <path class="cls-25" d="M299.32,313.81c.02,2.94,2.43,6.75,0,9.16-.59-1.08-.52-9.15,0-9.16Z"/>
        </g>
        <path class="cls-25" d="M332.1,401.21c1.68-.18,2.48.83,4.23.7,3.82.58-1.49,2.09-1.76,2.11-5.38.4-10.86-.62-16.21.7-1.2-2.07,1.11-1.12,1.76-1.41,4.02-1.79,7.76-1.66,11.98-2.11Z"/>
        <path class="cls-25" d="M350.42,399.09c-2.73,2.73-9.83,1.17-13.74,1.41-.58.04-.28,1.4-.35,1.41-1.75.13-2.55-.88-4.23-.7,5-4.48,12.3-2.66,18.32-2.11Z"/>
        <path class="cls-41" d="M374.38,256.73c-6.22,4.03-11.25,10.22-17.62,14.1,3.2-4.89,1.33-3.94,2.82-8.11-.73-.86-1.35-.02-2.11.35-.42-1.36.34-3.61.7-4.93l.7,2.47c1.64,1.84,10.43-4.92,11.98-6.7,1.85,3.04,3.37-1.4,3.52,2.82Z"/>
      </g>
    </g>
    <g>
      <g>
        <path class="cls-22" d="M184.79,266.59c-.23,3.01.24,6.15,0,9.16-17.45,8.29-25.33,28.79-19.03,46.87,4.31,12.36,17.48,12.56,9.16,28.9-6.96,13.67-32.83,14.19-40.88,1.06h-.7c-9.2,16.87-22.1,37.59-23.96,57.09-3.98-42.82,45.37-66.65,29.6-111.36,10.94-4.89,14.08,12.2,9.51,19.73,10.36-20.43,13.27-40.41,35.59-52.15-.05.9.71.66.7.7Z"/>
        <path class="cls-39" d="M184.09,264.48c-.03.32.04.71,0,1.41-22.32,11.74-25.23,31.73-35.59,52.15,4.56-7.54,1.42-24.63-9.51-19.73-2.05-5.8-6.74-8.79-7.75-17.62,1.54-2.16,5.86-12.29,7.4-13.39s12.2-3.02,14.45-5.29c-1.5-1.14-18.7,6.76-10.92,1.06s28.3-3.77,37.35-1.41l-4.23,3.52,8.81-.7Z"/>
        <path class="cls-22" d="M184.09,264.48l-8.81.7,4.23-3.52c-9.06-2.36-29.57-4.3-37.35,1.41s9.42-2.2,10.92-1.06c-2.25,2.27-12.95,4.22-14.45,5.29s-5.86,11.23-7.4,13.39c-2.73-23.84,39.67-31.98,53.92-22.55,3.62,2.39-.9,4.62-1.06,6.34Z"/>
        <path class="cls-22" d="M270.78,268.71l-4.23,2.47c.19-3.37-1.8-9.58-3.52-13.04-9.68-19.46-26.97-7.11-39.47-12.69,21.53-7.78,42.42-.47,47.22,23.26Z"/>
        <path class="cls-4" d="M263.03,258.14c-.81,3.8-1.49,5.27-4.58,7.75-1-.76.11-5.94-.35-7.4-.27-.85-1.23.73-1.41.35-1.54-3.22-4.91-7.75-9.16-4.93.35-1.34-1.14-1.77-2.11-2.11-1.56-5.81-19.7-3.84-23.96-2.11l1.41-4.23c.19.09.51-.09.7,0,12.5,5.58,29.79-6.77,39.47,12.69Z"/>
        <path class="cls-32" d="M220.03,241.93c.77.54,1.96,3.09,2.82,3.52l-1.41,4.23c-.16.07-1.58,1.49-2.82,2.11-.48.24-.88.6-1.41.7-.06-3.61,1.43-9.71,1.41-10.57.44.06,1.25-.11,1.41,0Z"/>
        <path class="cls-11" d="M183.38,283.51c.74-5.17-4.43-.06-5.99,1.41-15.35,14.43-12.15,39.14,4.23,51.45,4.45,3.35,7.15-.29,7.4,7.05-4.15.68-6.82-2.7-10.22-4.23-.57,5.8-.9,11.75-4.58,16.56-8.36,10.92-34.09,11.95-40.17-1.76v-1.41c8.05,13.14,33.92,12.62,40.88-1.06,8.31-16.34-4.86-16.53-9.16-28.9-6.3-18.08,1.58-38.58,19.03-46.87-.18,2.16-.99,2.31-1.41,4.58-.18.97,2.1-.48,0,3.17Z"/>
        <path class="cls-22" d="M256.68,258.84c-2.09,12.03-17.22.41-9.16-4.93,4.25-2.82,7.62,1.71,9.16,4.93Z"/>
        <path class="cls-22" d="M245.41,251.79c-7.98-2.86-18.65,1.11-26.78,0,1.24-.63,2.66-2.05,2.82-2.11,4.26-1.72,22.4-3.69,23.96,2.11Z"/>
        <g>
          <path class="cls-39" d="M245.41,251.79c.97.35,2.47.78,2.11,2.11-8.05,5.34,7.08,16.96,9.16,4.93.18.38,1.14-1.2,1.41-.35.46,1.46-.64,6.64.35,7.4,3.09-2.48,3.77-3.96,4.58-7.75,1.72,3.46,3.71,9.67,3.52,13.04l4.23-2.47c4.41,21.8-5.83,20.93-11.28,37-15.18,44.76,72.53,94.86,10.92,145.54-37.01,30.45-167.51,26.11-161.05-41.58,1.86-19.5,14.77-40.22,23.96-57.09-.38,1.43.67,1.34.7,1.41,6.08,13.71,31.81,12.68,40.17,1.76,3.68-4.81,4.01-10.77,4.58-16.56,3.4,1.53,6.07,4.91,10.22,4.23.33,9.62-1.7,19.87-.7,29.6-2.1-.08-4.24.09-6.34,0-4.86-.2-20.7-1.93-24.32-.7-2.72.92-3.23,11.14-2.47,13.04,1.09,2.72,18.58,1.67,22.91,2.47,7.23,1.33,16.14,7.41,24.67,7.05,6.58-.28,16.66-5.96,23.26-7.05,3.34-.55,17.95.85,19.73-1.41.45-.57,1.32-14-1.06-13.39-9.87-.25-19.76.41-29.6,0v-28.9c4.02-.68,8.65-2.55,11.98-4.93,22.86-11.52,20.58-41.5,2.11-56.38-1.76-5.47-7.23-7.92-11.28-11.28-.64-6.49-.59-12.54-.7-19.03.52-.1.93-.46,1.41-.7,8.14,1.11,18.8-2.86,26.78,0Z"/>
          <path class="cls-22" d="M229.2,282.8c-2.83-2.28-8.41-3.84-9.87-4.93-.7-.53-1.47-1.13-2.11-1.76-.65-1.62.75-4.16.7-4.58,4.04,3.36,9.52,5.81,11.28,11.28Z"/>
          <path class="cls-36" d="M283.11,392.05c3.59.6,3.58,21.08,3.17,24.32-1.97,15.66-18.51,33.49-32.77,39.12-21.14,8.34-92.88,7.98-112.77-3.52-16.09-9.31-33.83-34.52-21.85-52.15-3.47,32.21,23.05,53.08,52.86,55.68,32.43,2.83,101.58,4.22,107.48-39.82.53-3.93-2.25-24.63,3.88-23.61Z"/>
          <path class="cls-9" d="M255.63,296.9l-3.17,23.61c-1.66,24.98,13.69,44.16,20.44,63.43.75,2.14,6.44,20.56,3.17,20.79-3.41-2.54-1.35-5.21-2.47-8.11-8.59-22.16-23.36-41.17-26.78-65.55-.34-2.46-1.65-19.44-1.41-20.44.43-1.79,2.25.21,2.82-.7,2.64-4.25,4.05-9.21,7.4-13.04Z"/>
          <path class="cls-23" d="M134.05,352.58v1.41c-.03-.07-1.09.02-.7-1.41h.7Z"/>
        </g>
      </g>
      <g>
        <path class="cls-33" d="M228.49,17.8c-.41,1.21-2.8,2.82-2.82,3.17-.01.25,2.69,3.21,2.82,4.23.34,2.64-2.1,5.68-2.11,6.34-.03,2.23,4.33,13.91-2.47,10.92-4.4-1.93-4.17-10.85,1.06-12.33-7.79-2.27-1.84-8.49-2.11-11.98-.03-.32-1.87-1.68-2.11-5.29,3.98-6.94,9.85-1.21,7.75,4.93Z"/>
        <path class="cls-13" d="M179.86,13.57c.06-.22-.08-.51,0-.7v.7Z"/>
        <path class="cls-22" d="M183.38,283.51c-2.54,4.41-7.88,9.23-9.16,14.45-3.37,13.73,1.58,28.34,14.8,34.54l1.06-45.46c2.81,10.7-2.55,36.58.35,45.46.8,2.44,6.69,3.17,9.16,3.17h1.41c-1.06,10.34-8.67,2.09-10.57,4.58-1.61,2.12,2.28,3.49,3.52,3.88-.11,4.92.16,9.89,0,14.8-.09,2.8-.21,11.39-.7,13.39-.21.87.04,1.46-1.06,2.11-1.03-.04-3.17-1.38-3.88-1.41-1-9.73,1.03-19.98.7-29.6-.25-7.34-2.95-3.7-7.4-7.05-16.38-12.31-19.58-37.02-4.23-51.45,1.56-1.47,6.73-6.58,5.99-1.41Z"/>
        <path class="cls-22" d="M217.21,339.89c-1.25.33-6.75,1.71-7.4,1.41-4.88-7.21,7.52-8.04,12.69-11.98,11.61-8.87,12.3-24.25,3.88-35.59-3.04-4.1-9.74-6.33-8.46-10.92.11-.38,1.06-1.81,1.06-2.82,26.9,11.76,28.19,51.88-1.76,59.91Z"/>
        <path class="cls-11" d="M229.2,282.8c18.47,14.89,20.75,44.87-2.11,56.38-1.63.82-11.87,4.43-12.69,3.17l2.82-2.47c29.95-8.03,28.67-48.15,1.76-59.91,0,1.01-.95,2.44-1.06,2.82-2.3.22-.57-4.03,1.41-4.93,1.45,1.09,7.04,2.65,9.87,4.93Z"/>
        <path class="cls-41" d="M202.41,243.33c.4,3.27-1.46,13.63,2.82,10.92l-.7,3.52,3.17-6.7,2.47,4.93c.08,1.15-.04,1.97,0,2.82-6.78-.09-.07,7.86,0,8.81.04.5-1.46.21-1.41.7.17,1.77-1.27,10.74,2.11,8.81.02.18,1.41,2.26.7,3.52-.23.03-.48-.05-.7,0-4.84,1.01-15.2-1.2-19.38,0-1.82.52-1.95,1.07-1.76,2.82l-1.41-.35c-.07-1.05.1-2.14,0-3.17,1.92.26,1.33-.83,1.41-2.11,8.12-3.5,11.73,4.03,12.33-6.34l2.11,5.64.7-14.1c2.21-.02-1.99,13.76,2.47,13.74-.65-5.71,2.07-15.54-3.88-17.97l-2.11,2.82c1.25-3.14-1.84-1.67-2.47-2.82.23-1.1-.16-2.67,0-3.88.51-2.82,2.81,3.14,2.82,0,0-3.36-1.44-7.91-.7-11.63.44-.05.97-.05,1.41,0Z"/>
        <path class="cls-22" d="M206.64,344.83c.2,7.11.04,14.07-.7,21.14-.18,1.73.77,7.71-1.06,8.46-3.5,1.43-2.36-6.44-2.47-8.46-.38-7.44-.22-15.25,1.41-22.55,2.83.06,1.97,1.45,2.82,1.41Z"/>
        <path class="cls-22" d="M200.3,343.42c1.14,1.92.7,4.23.7,6.34-3.53-2.27-2.69,10.55-.7,11.28-.17,1.81-.48,3.8-.7,5.64-.39,3.19,1.69,8.86-3.52,7.75-1.4-3.03-.46-6.65-.7-9.87.09-2.35,0-4.73,0-7.05l2.11-13.39c.37.03,1.19-.8,2.82-.7Z"/>
        <path class="cls-5" d="M208.76,103.78h-1.41c-3.06,0-10.32-.59-12.69,0-1.13-1.91-1.09-2.05-1.41-4.23h.7c.23.04.48-.05.7,0,1.63.37,1.08,0,1.41,0,.47,0,.94,0,1.41,0,1.38,0,2.87.14,4.23,0,.07,0,.65.07,1.41,0,1.64-.14,2.66,1.05,4.23-.35.12-4.81-.17-9.65,0-14.45.02-.68-.26-1.43.7-1.41.43,6.9.52,13.54.7,20.44Z"/>
        <path class="cls-11" d="M210.87,280.69l-.35,3.52c-6.21-2.55-10.32,1.52-16.21.7-.29-.04-.84-3.59-4.58-1.41-.18-1.75-.05-2.3,1.76-2.82,4.19-1.2,14.54,1.01,19.38,0Z"/>
        <path class="cls-16" d="M203.82,343.42c-1.63,7.3-1.79,15.11-1.41,22.55l-2.82.7c.22-1.84.53-3.83.7-5.64.36-3.77.71-7.46.7-11.28,0-2.11.43-4.42-.7-6.34,1.49.09,2.3-.03,3.52,0Z"/>
        <path class="cls-38" d="M195.37,344.12c0,4.45-.01,8.94,0,13.39,0,2.32.09,4.7,0,7.05-.11-1.45-.77-4.2-1.41-5.64.16-4.91-.11-9.88,0-14.8.07.02.49-.12,1.41,0Z"/>
        <path class="cls-31" d="M197.48,344.12l-2.11,13.39c-.01-4.45,0-8.94,0-13.39.23.03.89-.11,2.11,0Z"/>
        <g>
          <path class="cls-11" d="M219.33,10.75c-.03,7.87-2.49,17.44-2.11,26.08l-4.93-.7c-.07-4.46-.99-10.58-.7-15.15.36-5.9,4.04-6.84-1.41-11.28,2.1,9.47-2.47,30.89,0,38.76,3.08,9.81,1.43-7.13,1.41-7.75-.04-1.34,1.43-1.61,1.41-2.47l4.23-.7c.16,2.96,2.07,3.41,2.11,3.88.03.29-1.77,3.25-1.41,5.64,1.16,7.66,4.9-3,7.4-2.47.39.08,5.23,5.19,5.29,5.99.08,1.1-2.32,5.79-3.88,5.99-2.71.34-4.94-5.13-7.4-5.29,4.47,12.34-6.53,13.8-7.75,23.96-.8,6.65,1.99,17.38,2.11,24.67.59,34.99.67,70.05.7,105.01l17.62-29.25c3.34,8.29,3.77,17.44,5.64,26.08.95,4.37,1.59,10.95,2.82,14.8-3.21-2.92-.75-12.28-5.64-12.69-.6-2.72-2.79-20.72-3.88-21.14-8.88,9.59-17.04,26.31-14.45,39.82.16.82,6.48,14.54,7.05,15.15-2.86.31-2.39.9-2.82,2.82l-4.58-11.98c-.78,4.17,2.36,9.55,2.47,13.39.02.86-1.47,6.96-1.41,10.57.11,6.49.07,12.54.7,19.03.04.42-1.35,2.96-.7,4.58.64.63,1.41,1.23,2.11,1.76-1.98.9-3.71,5.15-1.41,4.93-1.28,4.6,5.41,6.83,8.46,10.92,8.43,11.34,7.74,26.73-3.88,35.59-5.17,3.94-17.56,4.78-12.69,11.98.65.3,6.15-1.08,7.4-1.41l-2.82,2.47c.82,1.25,11.06-2.35,12.69-3.17-3.33,2.39-7.96,4.25-11.98,4.93-1.06.18-6.66.69-7.05.7-.46.02-.95-.02-1.41,0-.85.04,0-1.35-2.82-1.41-1.22-.03-2.03.09-3.52,0-1.63-.1-2.45.74-2.82.7-1.22-.11-1.88.03-2.11,0-.92-.12-1.34.02-1.41,0-1.25-.39-5.14-1.76-3.52-3.88,1.9-2.5,9.51,5.76,10.57-4.58,1.5-14.68-.83-32.26-.35-47.22l-1.06,47.22c-2.47,0-8.36-.73-9.16-3.17-2.9-8.88,2.46-34.76-.35-45.46l-1.06,45.46c-13.23-6.19-18.17-20.81-14.8-34.54,1.28-5.22,6.62-10.04,9.16-14.45,2.1-3.65-.18-2.2,0-3.17.42-2.27,1.23-2.42,1.41-4.58.24-3.01-.23-6.15,0-9.16,4.92-.55,1.11-4.46,4.23-4.93-.15,5.64-1.27,12.62-.7,18.32.1,1.03-.07,2.12,0,3.17l1.41.35c3.74-2.18,4.29,1.37,4.58,1.41,5.89.82,10-3.25,16.21-.7l.35-3.52c.22-.05.48.03.7,0,1.2,1.23.68-3.26.7-3.52,2.23-.41,2.31-9.92,0-10.57-.54-54.14-2.1-108.65-3.52-162.81-.18-6.9-.27-13.54-.7-20.44-.16-2.57-.51-5.15-.7-7.75-.21-2.78.44-5.72-.35-8.46-.66,3.27-4.76,9.88-6.7,3.88s1.66-21.02-.35-27.84c-3.38,5.9.61,18.47-.35,23.61-.05.28-5.76,2.56-.7,2.11l-2.11,3.52-1.41-.7c-.99-4.67-2.1-13.16-7.05-15.51,1.93,3.52,4,6.95,4.93,10.92-2.99,3.31.47,9.25-4.23,11.98-1.09-12.8-8.05-13-9.16-16.56-2-6.38,3.21-14.91,2.11-21.5.75-.14,3.69-2.88,4.93-3.17l-4.93-2.47c4.37-17.93-9.07-6.89-2.82-.7-2.52-.31-1.03,3.69-1.41,5.64-.21,1.09.36,1.97-1.06,2.82-11.1-4.99-1.98-9.62-1.76-11.63s-4.43-2.31-3.52-7.05c.46-2.41,6.45-4.74,1.41-5.99-5.88-6.07,4.26-13.32,5.64-4.93.12.73-1.51,18.01,4.58,10.57,1-1.22-1.03-7.01-1.06-7.4-.02-.29,1.5-.85,1.41-2.11-.03-.37-2.03-3.01-2.11-3.88-.17-1.81-.51-5.84,1.06-7.05.52-.4,11.79-3.43,12.69-3.52,7.69-.82,24.36.9,24.32,10.57Z"/>
          <g>
            <path class="cls-26" d="M220.74,240.52c-.16.69-.71.81-.7,1.41-.16-.11-.97.06-1.41,0-.11-3.84-3.25-9.22-2.47-13.39l4.58,11.98Z"/>
            <g>
              <path class="cls-22" d="M178.45,13.57h1.41v-.7c.27-.69-.08-1.9,1.41-2.11.08.87,2.09,3.51,2.11,3.88.09,1.26-1.43,1.83-1.41,2.11.03.39,2.06,6.18,1.06,7.4-6.09,7.44-4.46-9.84-4.58-10.57Z"/>
              <path class="cls-7" d="M217.21,36.83c.01.23-.01.47,0,.7l-4.23.7c-.03-1.35-.7-1.56-.7-2.11l4.93.7Z"/>
              <path class="cls-26" d="M207.35,75.59c-2.59,3.57-6.84,2.56-11.28,2.82.04-1.08-.95-.54-1.41-.7-.11-.04-.69-1.3-2.11-.7.16-3.02,2.01-2.32,2.11-3.17.04-.34-1.16-5.64-1.41-6.7-.93-3.97-3-7.4-4.93-10.92,4.95,2.34,6.06,10.84,7.05,15.51l1.41.7,2.11-3.52c-5.06.45.65-1.84.7-2.11.96-5.14-3.02-17.71.35-23.61,2.01,6.82-1.49,22.1.35,27.84s6.04-.6,6.7-3.88c.79,2.74.14,5.68.35,8.46Z"/>
              <path class="cls-17" d="M179.16,34.71c.79.78,2.16.35,2.47,2.11l.35-1.41,4.93,2.47c-1.24.29-4.18,3.03-4.93,3.17s-2.11-2.78-4.23-.7c.38-1.95-1.11-5.95,1.41-5.64Z"/>
              <polygon class="cls-22" points="188.67 11.46 189.73 32.25 187.97 53.04 188.32 33.66 188.67 11.46"/>
              <path class="cls-12" d="M212.28,36.12c0,.56.67.77.7,2.11.02.85-1.45,1.12-1.41,2.47.02.62,1.67,17.56-1.41,7.75-2.47-7.87,2.1-29.29,0-38.76,5.45,4.44,1.77,5.38,1.41,11.28-.28,4.58.64,10.69.7,15.15Z"/>
              <path class="cls-1" d="M206.64,337.07l-2.11-1.41c2.75-9.1.3-34.58.7-45.81l.7-.7c1.5,5.36,1.61,41.66.7,47.93Z"/>
              <path class="cls-1" d="M201,335.66h-1.41l1.06-47.22c-.48,14.96,1.86,32.54.35,47.22Z"/>
              <path class="cls-1" d="M211.22,287.74c2.21,15.06.84,30.66.7,45.81-2.21-15.06-.84-30.66-.7-45.81Z"/>
              <path class="cls-22" d="M181.98,35.42l-.35,1.41c-.3-1.76-1.68-1.33-2.47-2.11-6.25-6.19,7.19-17.23,2.82.7Z"/>
              <path class="cls-1" d="M195.01,287.74c.44,15.22.64,30.57.7,45.81l-1.06-22.2.35-23.61Z"/>
              <path class="cls-22" d="M204.53,335.66l2.11,1.41c-1.12,7.74-5.62,2.1-4.23-1.06.3-.69,2.07-.22,2.11-.35Z"/>
              <path class="cls-17" d="M211.93,53.04c2.29,1.18-2.47,5.19-2.82,6.34-.53-2.34,2.02-4.37,2.82-6.34Z"/>
              <path class="cls-1" d="M204.18,64.32c1.95.08,1.16,2.89,0,3.52-.58-.86-.58-2.62,0-3.52Z"/>
              <path class="cls-20" d="M196.42,48.81c.62.8,2.46,1.64,1.41,2.82-1.01.4-2.24-2.54-1.41-2.82Z"/>
              <path class="cls-29" d="M205.94,289.15l-.7.7c.05-1.45-1.29-1.71.35-2.82.71.5.18,1.48.35,2.11Z"/>
              <path class="cls-10" d="M202.06,66.43c.56.26.59,2.33,0,2.82-.94.79-.75-3.17,0-2.82Z"/>
              <path class="cls-20" d="M214.04,15.69c1.07-.39,1.55,1.04.7,1.41-1.03.45-1.55-1.1-.7-1.41Z"/>
            </g>
          </g>
        </g>
        <path class="cls-33" d="M210.17,256.02l-2.47-4.93-3.17,6.7.7-3.52c-4.28,2.71-2.42-7.65-2.82-10.92.93.11,2.91-.37,3.52.35l-.35,7.4c2.62-2.06-.94-9.39,4.58-7.4.21,4.08-.29,8.27,0,12.33Z"/>
        <path class="cls-35" d="M195.37,364.56c.24,3.22-.69,6.84.7,9.87-2.62-.56-.39-2.25-2.82-2.11.5-2,.62-10.59.7-13.39.64,1.43,1.3,4.19,1.41,5.64Z"/>
        <g>
          <path class="cls-22" d="M215.1,344.12v28.9c-1.21-.05-4.69,2.15-6.34-.35.56-2.55-.45-5-.7-7.4-.69-6.41.51-13.9,0-20.44.39-.02,5.99-.53,7.05-.7Z"/>
          <path class="cls-23" d="M208.05,344.83c.51,6.54-.69,14.03,0,20.44l-2.11.7c.74-7.08.91-14.03.7-21.14.46-.02.95.02,1.41,0Z"/>
          <path class="cls-31" d="M213.34,345.53c.84,6.8-.29,13.76-1.41,20.44-.21-6.43-.28-14.22,1.41-20.44Z"/>
        </g>
        <path class="cls-30" d="M201,349.76c0,3.81-.34,7.5-.7,11.28-1.99-.73-2.83-13.54.7-11.28Z"/>
        <g>
          <path class="cls-11" d="M215.1,373.02c9.84.41,19.73-.25,29.6,0,.03,15.36-1.17,12.33-15.15,11.98l-30.31,7.75c-3.6.46-17.98-7.49-21.14-7.75-5.39-.45-14.24,1.39-19.03,0-3.41-.99-2.92-10.7-2.11-11.28,2.51-1.78,21.05,1.43,25.02-.7,2.1.09,4.24-.08,6.34,0,.71.03,2.85,1.37,3.88,1.41,1.1-.66.84-1.25,1.06-2.11,2.43-.14.2,1.56,2.82,2.11,5.21,1.11,3.14-4.56,3.52-7.75l2.82-.7c.1,2.01-1.03,9.89,2.47,8.46,1.83-.75.88-6.73,1.06-8.46l2.11-.7c.26,2.4,1.26,4.86.7,7.4,1.65,2.5,5.13.3,6.34.35Z"/>
          <g>
            <path class="cls-14" d="M181.98,373.02c-3.97,2.14-22.51-1.08-25.02.7-.81.57-1.29,10.29,2.11,11.28,4.79,1.39,13.64-.45,19.03,0,3.16.26,17.54,8.22,21.14,7.75l30.31-7.75c13.98.35,15.18,3.38,15.15-11.98,2.38-.61,1.51,12.82,1.06,13.39-1.79,2.26-16.4.86-19.73,1.41-6.6,1.09-16.68,6.77-23.26,7.05-8.53.36-17.44-5.72-24.67-7.05-4.32-.79-21.81.25-22.91-2.47-.77-1.9-.25-12.11,2.47-13.04,3.62-1.23,19.45.5,24.32.7Z"/>
            <path class="cls-22" d="M187.26,375.84c3.63-1.74,5.41,3.69,2.82,4.93-3.63,1.74-5.41-3.69-2.82-4.93Z"/>
            <path class="cls-22" d="M211.22,375.84c3.49-.53,5.2,3.23,2.82,4.23-2.64,1.1-7.79-3.47-2.82-4.23Z"/>
            <path class="cls-22" d="M195.72,377.95c2.9-2.18,5.69,3.52,2.11,4.23-2.86.57-3.09-3.49-2.11-4.23Z"/>
            <path class="cls-22" d="M204.18,377.95c2.42-.85,3.19,4.97.7,4.93-1.18-.02-2.97-4.14-.7-4.93Z"/>
          </g>
        </g>
        <g>
          <path class="cls-33" d="M198.89,258.84c.63,1.15,3.72-.32,2.47,2.82l2.11-2.82c5.94,2.44,3.23,12.26,3.88,17.97-4.46.01-.26-13.77-2.47-13.74l-.7,14.1-2.11-5.64c-.61,10.37-4.22,2.84-12.33,6.34.26-4.46.36-8.93.7-13.39.46.02.95-.04,1.41,0-.29,3.02-.16,6.31,1.06,9.16.39-2.69,3.25-8.79-1.06-9.16.16-1.61-.29-1.85.7-3.52.23-.38,2.26-2.6,3.17-2.11l2.11,4.23c1.24-1.33.78-2.92,1.06-4.23Z"/>
          <path class="cls-10" d="M197.83,263.77l4.58.35-.35,6.7c-1.14-1.74-5.66-5.72-4.23-7.05Z"/>
          <path class="cls-41" d="M195.72,264.48c2.12,3.57,4.36,6.2,2.82,10.57-1.09-4.15-4.77-5.77-2.82-10.57Z"/>
          <path class="cls-10" d="M191.84,264.48c4.31.38,1.45,6.47,1.06,9.16-1.22-2.85-1.35-6.14-1.06-9.16Z"/>
        </g>
        <g>
          <path class="cls-25" d="M194.66,103.78c2.37-.59,9.63,0,12.69,0-.5,3.44,2.1,15.16-3.88,13.39-1.58-.47,1.02-10.64-1.41-12.69.56,14.02-4.06,18.19-4.23,1.41l-.35,10.22c-8.1,2.95-3.99-6.95-4.93-11.98.37-.7,1.52-.2,2.11-.35Z"/>
          <path class="cls-41" d="M199.95,105.19c2.65,2.18-.04,7.07,0,9.87-.81-.01-.12-8.48,0-9.87Z"/>
        </g>
        <g>
          <path class="cls-26" d="M207.35,75.59c.19,2.6.54,5.18.7,7.75-.96-.02-.68.73-.7,1.41l-4.93-.35.7,15.15c-.76.07-1.34,0-1.41,0-.87-4.6-1.28-9.12-2.11-13.74-.23-1.26,4.11-2.27-1.41-2.11l-.7,15.86c-.47,0-.94,0-1.41,0l-.35-16.21-1.06,16.21c-.22-.05-.48.04-.7,0l.35-16.21c-1.46,4.22-1.68,11.91-1.06,16.21.32,2.18.28,2.31,1.41,4.23-.6.15-1.75-.34-2.11.35.94,5.03-3.16,14.93,4.93,11.98l.35-10.22c.17,16.78,4.79,12.61,4.23-1.41,2.43,2.05-.17,12.22,1.41,12.69,5.98,1.77,3.38-9.95,3.88-13.39h1.41c1.43,54.16,2.98,108.67,3.52,162.81.03,3.33.3,7.35,0,10.57-.02.27.5,4.76-.7,3.52.7-1.26-.69-3.35-.7-3.52-.62-5.83-.41-12.39-.7-18.32-.04-.85.08-1.67,0-2.82-.29-4.06.21-8.25,0-12.33-5.52-1.99-1.96,5.34-4.58,7.4l.35-7.4c-.61-.73-2.6-.25-3.52-.35-.44-.05-.97-.05-1.41,0-1.32.15-2.62-.48-3.52,1.06-.37.64.83,13.39,1.41,14.45-.28,1.31.18,2.9-1.06,4.23l-2.11-4.23c-.91-.49-2.94,1.73-3.17,2.11l-2.11-4.58c-.15,2.68.21,5.44,0,8.11-.35,4.46-.44,8.93-.7,13.39-.08,1.28.51,2.37-1.41,2.11-.57-5.7.55-12.68.7-18.32.16-5.96-.3-12.02,0-17.97.11-2.21,1.01-3.41,1.41-.35-.37,1.7-.07,16.83,2.11,10.92.57-1.54-1.33-5.51-.7-8.11,2.99.93,1.49,9.01,2.11,10.22,5.84-.6,1.39-5.23,1.41-5.64.07-1.46,4.09-7.69-1.06-7.4-.28,1.87-1.67,1.3-1.76,1.41l-1.41-2.11c0-.49-.22-1.1.35-1.41.83-.44,15.6,2.09,18.68-.35l-1.76-14.45-1.41,11.98c-1.44-3.72,1.62-10.34-2.47-12.33l.35,13.04c-2.43,1.51-1.11-12.01-2.82-12.69l-.7,4.93c-4.33-13.87-3.59,2.26-4.23,7.05-2.97-2.81,2.74-13.39-3.88-10.92l-.35,11.63c-1.49-3.63,1.73-10.17-2.47-11.63,1.89-50.09-.57-100.39,2.11-150.47,1.42-.59,2.01.67,2.11.7l-1.06,1.41c1.44.65,2.34-.7,2.47-.7,4.43-.26,8.69.75,11.28-2.82Z"/>
          <g>
            <path class="cls-14" d="M192.55,244.74c-.19.23-.62,1.04-.7,1.41-.63,2.59,1.27,6.56.7,8.11-2.18,5.91-2.48-9.22-2.11-10.92.01-.05.83.11.7-.7l1.41,2.11Z"/>
            <path class="cls-21" d="M212.28,277.16c.3-3.22.03-7.25,0-10.57,2.31.65,2.23,10.16,0,10.57Z"/>
            <path class="cls-3" d="M204.53,121.4c1.14,1.97,1.54,10.28-.7,11.98-.94.09-4.53.22-4.93-.35l-.35-12.33c-3.33,0,2.83,17.34-5.99,12.33v-12.69c3.21-.13,10.12-2.16,11.98,1.06Z"/>
            <path class="cls-25" d="M198.54,136.21c7.91-3.51,5.6,12.22,4.23,16.92-5.25-1.02.21-11.62-2.11-16.21l-1.06,15.15c-3.65,6.56-2.82-15.07-1.06-15.86Z"/>
            <path class="cls-33" d="M194.66,196.11c-1.22-3.45-.53-7.04-.7-10.57l3.52-.35.35,10.22c-.14-14.86,4.32-13.64,3.17.35-.37.95-5.69.53-6.34.35Z"/>
            <path class="cls-25" d="M192.9,136.21c5.83-4.38,3.16,21.9-.35,16.56-.46-.69-.31-16.07.35-16.56Z"/>
            <path class="cls-33" d="M205.59,201.75c4.68-3.46,4.61,12.08,2.82,12.69l-3.17-.35c.31-1.94-.57-11.65.35-12.33Z"/>
            <path class="cls-25" d="M204.88,136.21c4.92-3.17,3.51,16.48,2.11,16.92-3.54,1.11-.75-14.53-2.11-16.92Z"/>
            <path class="cls-25" d="M192.9,155.24c3.69-2.86,2.76,13.61,2.11,14.1-5.07,3.81-2.79-13.58-2.11-14.1Z"/>
            <path class="cls-33" d="M201.71,99.56c-1.36.14-2.85,0-4.23,0l.7-15.86c5.52-.16,1.18.86,1.41,2.11.83,4.63,1.24,9.14,2.11,13.74Z"/>
            <path class="cls-11" d="M210.17,258.84c.29,5.94.08,12.49.7,18.32-3.38,1.93-1.94-7.04-2.11-8.81-.05-.5,1.45-.2,1.41-.7-.07-.95-6.78-8.9,0-8.81Z"/>
            <path class="cls-33" d="M192.9,201.75c4.19-3.4,3.58,11.41,2.82,11.98-4.59,3.45-3.39-11.51-2.82-11.98Z"/>
            <path class="cls-33" d="M207,155.24c1.49.34,1.46,13.18,1.06,13.74-4.22,5.96-3.78-14.37-1.06-13.74Z"/>
            <path class="cls-33" d="M201,243.33c-.73,3.72.71,8.27.7,11.63,0,3.14-2.31-2.82-2.82,0-.16,1.21.23,2.78,0,3.88-.58-1.06-1.78-13.81-1.41-14.45.91-1.54,2.2-.91,3.52-1.06Z"/>
            <path class="cls-33" d="M191.84,246.15c.09-.37.52-1.17.7-1.41.09-.11,1.48.46,1.76-1.41,5.15-.29,1.13,5.94,1.06,7.4-.02.41,4.43,5.03-1.41,5.64-.62-1.21.87-9.29-2.11-10.22Z"/>
            <path class="cls-33" d="M197.83,155.24c2.73-.83,2,13.64,1.41,14.1-3.91,3.04-2.72-13.7-1.41-14.1Z"/>
            <path class="cls-33" d="M201.36,155.94c3.69-2.86,2.73,12.92,2.11,13.39-3.69,2.86-2.73-12.92-2.11-13.39Z"/>
            <path class="cls-33" d="M197.83,171.45l2.11,5.64,1.06-5.29c1.43-2.73,5.45,11.86-3.52,7.75l.35-8.11Z"/>
            <path class="cls-25" d="M204.88,171.45c4.88-3.47,6,11.53-.35,8.11.27-1.51-.52-7.49.35-8.11Z"/>
            <path class="cls-33" d="M192.9,171.45l3.17,1.06-1.06,7.4c-4.59,1.78-3.54-7.74-2.11-8.46Z"/>
            <path class="cls-11" d="M198.54,201.75c2.76-.73,1.91,11.59,1.41,11.98-3.66,2.84-2.99-11.56-1.41-11.98Z"/>
            <path class="cls-33" d="M203.82,133.39c2.25-1.7,1.85-10.01.7-11.98,4.6-5.69,2.29,9.21,2.82,11.63-.49.7-2.62.26-3.52.35Z"/>
            <path class="cls-33" d="M192.9,215.85c4.09-3.06,3.69,7.84,2.82,8.46-4.94,3.51-3.3-8.1-2.82-8.46Z"/>
            <path class="cls-33" d="M197.83,215.85c3.36-2.6,2.82,7.91,2.11,8.46-3.36,2.6-2.82-7.91-2.11-8.46Z"/>
            <path class="cls-11" d="M202.06,202.46c2.65-2.19,1.95,10.83,1.41,11.28-2.65,2.19-1.95-10.83-1.41-11.28Z"/>
            <path class="cls-33" d="M203.12,219.37c.04-1.38-.22-2.29.7-3.52l2.82.35v8.46l-3.52-5.29Z"/>
            <path class="cls-11" d="M193.96,185.54c.18,3.53-.51,7.12.7,10.57-.1-.03-1.25.88-2.11-.35.76-2.69-1.9-16.91,2.11-13.39-1.03.74-.76,2.05-.7,3.17Z"/>
            <path class="cls-33" d="M196.07,99.56c-.33,0,.22.37-1.41,0l1.06-16.21.35,16.21Z"/>
            <path class="cls-14" d="M193.96,99.56h-.7c-.62-4.3-.4-11.99,1.06-16.21l-.35,16.21Z"/>
            <path class="cls-11" d="M203.82,215.85c-.92,1.23-.66,2.14-.7,3.52s-.43,3.51.7,4.58c-3.4,2.95-1.75-6.03-2.11-7.75l2.11-.35Z"/>
            <path class="cls-33" d="M208.4,215.85c1.94,2.18,1.04,6.52.7,9.16-2.13-1.67-.9-6.84-.7-9.16Z"/>
            <path class="cls-11" d="M192.55,260.95c-1,1.67-.55,1.92-.7,3.52-.46-.04-.95.02-1.41,0,.21-2.66-.15-5.42,0-8.11l2.11,4.58Z"/>
            <path class="cls-33" d="M194.66,77.71c.46.16,1.45-.38,1.41.7-.13,0-1.03,1.35-2.47.7l1.06-1.41Z"/>
            <path class="cls-40" d="M192.9,197.52c1.21-.54,1.49,1.76.7,2.11-1.21.54-1.49-1.76-.7-2.11Z"/>
            <path class="cls-18" d="M203.12,198.23v1.41l-1.41-1.76c1.23-1.15,1.34.37,1.41.35Z"/>
            <path class="cls-37" d="M199.24,181.31l1.76,1.06c-1.18.9-2.88.32-1.76-1.06Z"/>
            <path class="cls-18" d="M203.82,199.64v-1.41c.48.15.74-.45,1.06-.7l.35,1.76c-.14.63-1.24.22-1.41.35Z"/>
            <path class="cls-18" d="M198.54,198.23c.59-.36,1.8.96,1.76,1.06-.53,1.17-3.34-.1-1.76-1.06Z"/>
            <path class="cls-18" d="M195.72,198.23c1.07-.39,1.55,1.04.7,1.41-1.03.45-1.55-1.1-.7-1.41Z"/>
            <polygon class="cls-15" points="196.42 182.02 197.48 182.37 197.13 183.43 196.78 183.07 196.42 182.02"/>
            <path class="cls-41" d="M203.82,199.64c-.14.11-.39,1.49-.7,0v-1.41c.16-.03.55-.05.7,0v1.41Z"/>
            <g>
              <path class="cls-25" d="M206.29,181.31c4.84,2.04,1.78,13.49,2.11,18.32-.23-6.84-4.97-1.15-5.99-3.88-1.35-3.61-.71-12.29,4.93-11.98l-1.06-2.47Z"/>
              <path class="cls-10" d="M205.59,191.18c2.05-.07.11,2.53,0,3.52-1.74-1.2-.81-1.94,0-3.52Z"/>
            </g>
          </g>
        </g>
        <g>
          <path class="cls-33" d="M207.35,84.76c-.17,4.8.12,9.64,0,14.45-1.57,1.41-2.59.21-4.23.35l-.7-15.15,4.93.35Z"/>
          <path class="cls-10" d="M205.59,93.92c1.24,1.45.48,3.27,0,4.93-.51,0-.6-4.28,0-4.93Z"/>
        </g>
      </g>
    </g>
    <g>
      <path class="cls-11" d="M285.58,139.02c0,9.51-1.18,24.16-2.11,33.83-.36,3.7-1.39,14.77-2.11,17.62-.27,1.05-2.19,4.76-2.82,6.34-1.04-2.57,1.2-7.73-2.11-8.81.3,1.94-.88,3.59-1.41,5.29l-1.41-14.1c3.28-.22,2.04-2.05,4.93-1.76l4.23-38.76c-.85-.97-1.29.14-2.11.35-1.78.46-13.37,8.82-15.51,10.57-15.4,12.68-13.69,28.75-11.98,47.93,1.21,13.53,3.5,18.13,5.29.7,1.03,10.23,3.06,9.03,12.33,7.05,2.87-.61,1.24,1.89,4.23-1.41.4,1.65-1.35,2.3.35,3.52,4.64,3.33,7.38-8.78,8.81-10.92,6.32-9.44,14.13-13.32,24.67-8.81-5.97,1.98-6.85-.84-13.39,3.52-1.28.85-4.67,4.25-5.64,5.64-6.24,8.95-4.81,13.31-2.11,23.26,1.95,7.19,10.23,17.61,4.23,23.96.07-5.79-1.37-13.85-4.23-18.68,1.24,7.12,2.12,14.42,3.52,21.5.28,1.42,1.28,3.38,1.41,4.93-1.63-1.63-2.84-5.62-3.52-2.11-.08-.45-3.89-7.73-4.23-8.11-5.23-5.79-13.55-4.36-20.44-2.47-.32-.08-1.31-.61-1.41-.7-1.27-1.24-1.96-2.44-3.52-3.52v-.7c2.15,1.33,6.83,4.76,7.75,1.76.84-2.74-7.18-6.37-6.7-9.51l10.22,9.51-4.23-15.86c1.33,1.72,1.71,4.37,3.52,4.93.36,2.1,1.16,9.72,3.17,10.57,2.74,1.16,4.68-1.44,4.93-1.41.44.05,4.32,7.52,2.47-2.11,1.04,1.41,1.42,4.75,2.11,5.99.19.35,4.61,6.56,5.64,5.64-3.79-9.25.28-21.92-7.75-29.95-14.29-14.28-41.19,4.62-34.54,22.55-2.35-2.25-3.64-12.92-4.23-16.92.33.62.24,3.03,1.76,2.82.54-2.43,7.07-8.34,7.4-9.51.74-2.63-.67-6.61-.7-8.81-.13-8.93-1.08-17.81-.7-26.78.18-4.31-.28-8.78.7-13.04,3.05-13.18,22.91-26.71,35.24-28.9v3.88Z"/>
      <path class="cls-33" d="M317.3,153.83c4.56-6.58,6.98-14.99,9.16-22.55.24-.82,3.51-7.81,2.47-8.46-4.04-.34-8.87-2.08-10.92,2.47.78.44.84.29,1.41,1.06-6.96,3.16-2.65,21.04-2.82,28.19-.5.67-.98.92-1.41,1.41l-3.88-13.39c-2.24-.35-3.59,15.35-3.88,17.62-.34,2.72-1.22,5.35-1.41,8.11.54-.15,1.71-1.35,2.11-1.76,11.19,1.48,38.51-8.74,32.07-23.26l-30.66,21.14c10.71-11.46,23.85-18.84,36.3-28.19,3.5,13.23-9.53,26.48-21.14,30.31-16.5,5.44-11.97-2.45-25.73,11.98-4.85,5.09-9.02,10.92-14.45,15.51l-2.47-3.52c3.07-5.47,20.78-16.36,22.55-20.79s1.01-14.58,2.11-19.73c3.16-14.77,10.65-29.56,22.2-39.12,5.11,14.17-2.31,32.07-11.63,42.99Z"/>
      <path class="cls-8" d="M299.68,179.2c.07.73-1.43.92.35,2.11,9.49-3.46,19.99-2.94,29.95-2.82.37,1.89-1,7.73,0,9.16,1.72,2.04-.64,2.48-1.76,2.82-2.51.75-11.85,2-14.1,1.41-1.1-.29-3.91-3.64-5.29-4.23-10.54-4.51-18.35-.63-24.67,8.81-1.43,2.14-4.17,14.25-8.81,10.92-1.7-1.22.05-1.88-.35-3.52,1.51-1.67,2.68-4.89,3.52-7.05.62-1.59,2.55-5.29,2.82-6.34h.7l2.47,3.52c5.43-4.59,9.6-10.42,14.45-15.51-.13.82.7.66.7.7Z"/>
      <path class="cls-25" d="M298.97,158.76c2.02-8.69,1.16-8.78-6.34-13.74l.7,21.85,4.23-4.58c-2.67,6.74-7.81,12.05-12.33,17.62-.66-.51.19-5.97.35-7.05.23-1.53-.25-2.96.7-4.58,3.6,3.18,1.45-2.73,2.11-4.23.17-.38,2.45,1.06,2.82-.7.88-4.18-3.04-17.99-1.41-22.91.34-1.01,11.99-17.25,13.39-15.86,1.84,11.51.67,23.57-4.23,34.18Z"/>
      <path class="cls-26" d="M248.23,177.08h1.41c-.37,8.98.57,17.85.7,26.78-4.54,1.61-2.83-3.32-4.58-5.64-1.24-.13-1.62,2.68-1.76,3.52l-5.99-26.78c1.69,8.86,1.84,18.79,3.17,27.49l-3.52-.7c-1.87-8.64-2.3-17.79-5.64-26.08.77-.9,1.68-3.14,2.11-3.52l9.87-.35,2.47,17.27c1.21-2.72,1.9-9.09,1.76-11.98Z"/>
      <path class="cls-8" d="M308.13,166.51c.42-.44.65-1.3,1.41-2.11l30.66-21.14c6.44,14.52-20.88,24.73-32.07,23.26Z"/>
      <path class="cls-2" d="M319.41,126.34c1.58,2.14,5.03,3.12,7.05,4.93-2.18,7.57-4.6,15.97-9.16,22.55-.47.68-.68.66-.7.7.17-7.16-4.14-25.03,2.82-28.19Z"/>
      <path class="cls-41" d="M289.81,140.43c-1.63,4.92,2.29,18.73,1.41,22.91-.37,1.77-2.65.33-2.82.7-.66,1.5,1.48,7.41-2.11,4.23-.96,1.62-.47,3.05-.7,4.58h-2.11c.94-9.67,2.12-24.32,2.11-33.83l4.23,1.41Z"/>
      <path class="cls-2" d="M298.97,158.76c-.52,2.22-.85,2.11-1.41,3.52l-4.23,4.58-.7-21.85c7.5,4.96,8.36,5.05,6.34,13.74Z"/>
      <path class="cls-2" d="M315.18,155.94c-1.48,1.7-5.01,7.06-7.75,4.23.29-2.27,1.63-17.97,3.88-17.62l3.88,13.39Z"/>
      <path class="cls-33" d="M248.23,177.08c.13,2.89-.55,9.26-1.76,11.98l-2.47-17.27-9.87.35c7.94-7.14,13.58-6.27,14.1,4.93Z"/>
      <path class="cls-8" d="M234.83,203.87c1.37,6.2,3.4,12.22,4.93,18.32-1.94,3.52-4.08-.33-4.58,0-1.51,1,1.86,4.86-1.06,3.88l-9.87-21.85c-1.3,4.33,10,24.32,9.16,25.37-.65.82-4.06.13-5.29.35-2.66,1.57.35,3.98.35,4.23.01.78.46,3.38.35,3.52-.94,1.23-4.07,1.3-5.29,0-.57-.61-6.89-14.33-7.05-15.15-2.6-13.51,5.57-30.23,14.45-39.82,1.08.42,3.28,18.43,3.88,21.14Z"/>
      <path class="cls-3" d="M239.77,222.19c1.08,4.29,2.96,8.08,2.82,13.04-.27.58-11.05,2.58-11.63,2.47-.7-.14-1.45-6.43-2.47-3.52,0-.25-3.01-2.66-.35-4.23,1.23-.22,4.64.47,5.29-.35.84-1.06-10.46-21.04-9.16-25.37l9.87,21.85c2.92.98-.45-2.87,1.06-3.88.5-.33,2.65,3.52,4.58,0Z"/>
      <path class="cls-2" d="M250.34,203.87c.03,2.2,1.45,6.18.7,8.81-.33,1.18-6.86,7.08-7.4,9.51-1.52.21-1.43-2.2-1.76-2.82s-1.28-2.4-1.41-2.82c-1.23-3.85-1.87-10.43-2.82-14.8l3.52.7c.27,1.74.35,6.05,2.47,6.34.9-2.21-.01-4.82.35-7.05.14-.84.52-3.65,1.76-3.52,1.75,2.32.04,7.25,4.58,5.64Z"/>
      <path class="cls-10" d="M273.6,179.2c-4.96.34-4.75-1.59-6.34-2.11l-.35-14.1c-1.32,3.23-1.73,9.18-1.76,12.69-5.83.31-1.67,8.61-5.99,10.57l-1.06-16.56c.21,8.96-.19,18.21-2.82,26.78-.32,1.03-.73,3.56-2.11,1.06-1.71-19.18-3.42-35.24,11.98-47.93l2.47,5.64c3.3-6.62,10.95-9.44,13.04-16.21.82-.21,1.26-1.32,2.11-.35l-4.23,38.76c-2.9-.29-1.65,1.54-4.93,1.76Z"/>
      <path class="cls-8" d="M265.14,175.67c0,.69-.98,1.66.35,2.82.46-.31,1.22-1.59,1.76-1.41,1.6.53,1.38,2.45,6.34,2.11l1.41,14.1c-1.29,4.11-.88,8.47-4.23,11.98-9.28,1.98-11.31,3.18-12.33-7.05-1.79,17.43-4.08,12.83-5.29-.7,1.39,2.51,1.8-.03,2.11-1.06,2.63-8.58,3.03-17.82,2.82-26.78l1.06,16.56c4.33-1.96.16-10.26,5.99-10.57Z"/>
      <path class="cls-26" d="M265.14,149.6c2.13-1.76,13.73-10.11,15.51-10.57-2.09,6.77-9.74,9.59-13.04,16.21l-2.47-5.64Z"/>
      <path class="cls-25" d="M278.53,196.82c-.85,2.15-2.01,5.38-3.52,7.05-2.99,3.3-1.36.8-4.23,1.41,3.34-3.51,2.94-7.87,4.23-11.98.53-1.69,1.71-3.35,1.41-5.29,3.32,1.08,1.08,6.24,2.11,8.81Z"/>
      <path class="cls-3" d="M329.98,187.66c-1-1.43.37-7.27,0-9.16,6.03.07,11.93,1.07,17.97,0,1.91,1.15-2.99,6.78-4.93,7.75-.1.05-.82-1.22-2.11-.7-2.46.98-9.16,4.65-10.92,2.11Z"/>
      <path class="cls-25" d="M326.46,131.27c-2.02-1.82-5.46-2.79-7.05-4.93-.57-.77-.63-.62-1.41-1.06,2.06-4.55,6.89-2.81,10.92-2.47,1.04.64-2.23,7.64-2.47,8.46Z"/>
      <path class="cls-5" d="M244,201.75c-.36,2.23.54,4.84-.35,7.05-2.11-.29-2.2-4.6-2.47-6.34-1.33-8.7-1.48-18.62-3.17-27.49l5.99,26.78Z"/>
      <g>
        <path class="cls-11" d="M85.42,176.38c.77.08,3.97.81,4.58,1.41l-20.79,1.76c1.43,1.86,8.11,13.6,9.51,13.74,1.73.17,3.22-3.93,4.93-4.93,7.6-4.45,23.24.5,33.48,0,.69-.03,1.43.07,2.11,0l4.93,2.82c-5.81-1.44-13.43-.96-19.03,1.06l9.51,12.33c3.87-1.92,8.2-2.53,12.33-3.52l.7,2.11c-4.67-1.16-14.94,2.01-11.63,8.46,4.14-3.53,9.08-5.9,14.45-6.34,3.18,1.88.8,3.13,6.34,2.82l8.46,8.46c-10.49-11.94-29.94-8.61-33.83,7.4-1.4,5.77-.24,12.75-2.11,18.68-2.13,3.04-3.48,6.44-3.52,10.22-1.35.02-.57-2.98-.7-3.88,1.86-8.52,3.61-17.37,4.23-26.08,1.31-1.33,1.6-3.25,2.11-4.93.8-2.62,1.85-2.76,1.41-6.7-.25-2.17-4.69-13.75-7.75-13.74-5.66-10.72-14.92-8.13-22.55-1.41-3.2,2.82-2.47,3.68-4.93,6.34-.63-9.47-7.27-16.8-11.28-25.02.57-1.38,16.6-1.31,19.03-1.06Z"/>
        <path class="cls-25" d="M134.05,186.25c.65-.21,1.33-.07,2.11-.7.49,1.89,9.74,11.57,11.98,13.39,0,.23-.04.49,0,.7-4.2,5.27-3.46,8.02-11.28,8.46-5.54.31-3.16-.94-6.34-2.82-.15-.09.33-1.33-2.82-2.11l-.7-2.11c1.07-.26,5.77-.24,6.34-1.06-3.45-4.84-3.35-7.37-9.16-8.81l-4.93-2.82c.42-.04,2.14.7,3.17,0l.35-2.47c-2.2-1.68-3.19-5.52-6.34-5.99-1.87-2.5-5.39-7.42-7.75-9.16l3.52-4.23c4.66,4.71,13.25,15.83,17.97,19.03,1.89,1.28,1.76,1.38,3.88.7Z"/>
        <path class="cls-11" d="M185.5,191.18c-11.82,7.4-4.09-12.59-7.75-17.97-1.22-1.79-.72.15-2.11.35-1.03-4.18-3.34-7.71-5.64-11.28-5.35-8.31-12.79-14.22-22.2-17.62l-6.7,33.13c-.46-.28-1.44-9.2-1.41-10.57.06-2.66,3.89-26.89,4.93-27.84,23.15,4.39,38.99,27.88,35.94,51.45l4.93.35Z"/>
        <path class="cls-2" d="M160.13,213.03c2.57-2.25,3.69.85,4.58.7,3.77-.6,9.31-30.32,8.81-35.59l2.82-1.76c2.23,13.24-1.62,30.65-9.51,41.58-2.42.54-5.29-3.66-6.7-4.93Z"/>
        <path class="cls-25" d="M153.78,206.69c-1.51-1.79-1.7-2.51-2.82-4.23,2.94-4.01,4.64-9.44,6.34-14.1,1.53-4.16,2.74-8.5,4.23-12.69-.22,11.43-3.81,20.19-7.75,31.01Z"/>
        <path class="cls-2" d="M157.31,188.36c-1.71,4.65-3.4,10.08-6.34,14.1-.11-.17-2.2.32-2.82-2.82-.04-.22,0-.48,0-.7-.18-5.36,5.53-11.31,9.16-14.45v3.88Z"/>
        <path class="cls-41" d="M162.95,167.22c-3.85,1.56-1.35,5.55-1.41,8.46-1.49,4.18-2.7,8.52-4.23,12.69v-3.88c-3.63,3.14-9.35,9.09-9.16,14.45-2.24-1.82-11.49-11.5-11.98-13.39-1.47-5.64,1.75-10.67,2.11-14.8.04-.48.68-1.88.7-3.52h.7c-.03,1.37.95,10.3,1.41,10.57l4.93-1.41c-.92,4.88-1.8,10.13-2.47,14.8,1.22.28,6.43-21.63,4.58-23.96.72-3.4,1.15-11.89,2.47-2.82l4.93-7.75c2.74,1.85,1.01,6.33,2.47,8.11.81.99,3.87-1.82,4.93,2.47Z"/>
        <path class="cls-8" d="M101.63,153.83l-28.54.7c-1.06,1.79.4,1.23,1.41,1.41,2.8.51,16.68-.82,17.27,2.47-1.25,4.25-5.15,2.77-7.4,3.88-1.69.83-.65,3.12-1.41,3.52-.48.26-9-1.9-10.92-.35,9.68,2.62,22.79.78,32.07,2.47,3.08.56,2.93,1.6,4.58,2.82,2.36,1.74,5.89,6.66,7.75,9.16-1.93-.29-26.82,2.24-29.95,2.82-.19.03-2.89.97-2.47,1.76,8.22.42,30.37-6.08,33.13,3.88-10.23.5-25.88-4.45-33.48,0-1.71,1-3.21,5.11-4.93,4.93-1.41-.14-8.09-11.88-9.51-13.74l20.79-1.76c-.61-.6-3.81-1.33-4.58-1.41v-.7c5.91.39,13.29.42,19.03-1.06-20.29-5.17-42.72,1.53-46.52-26.08,1.35-1.65,12.57,1.81,13.39-2.47,1.89-.22,5.3.93,4.93-1.41,7.75.74,17.98-2.68,21.85,5.99l-27.84,1.06h28.9c.42.85,2.11,1.67,2.47,2.11Z"/>
        <path class="cls-33" d="M71.32,146.07c-.82,4.28-12.04.82-13.39,2.47,3.8,27.61,26.23,20.91,46.52,26.08-5.74,1.47-13.12,1.44-19.03,1.06-7.85-.51-17.13-1.04-22.55-7.4-2.03-2.37-10.03-19.81-7.4-21.5,5.39-.77,10.4-.08,15.86-.7Z"/>
        <path class="cls-3" d="M112.2,166.51l-3.52,4.23c-1.65-1.21-1.5-2.26-4.58-2.82-9.28-1.68-22.39.16-32.07-2.47,1.93-1.54,10.44.61,10.92.35.76-.4-.28-2.7,1.41-3.52,2.25-1.1,6.15.37,7.4-3.88-.58-3.29-14.47-1.96-17.27-2.47-1.01-.18-2.47.38-1.41-1.41l28.54-.7c.34.42,1.83,1.9,1.41,2.47l-5.64,2.11c9.97-.9,9.58,2.83,14.8,8.11Z"/>
        <path class="cls-2" d="M138.28,170.74c-.37,4.13-3.59,9.16-2.11,14.8-.78.63-1.47.5-2.11.7-4.17-3.16-1.63-21.49,0-25.73.23-.6,1.17-2.53,2.11-1.41l2.11,11.63Z"/>
        <path class="cls-10" d="M169.99,162.28c-.9,6.84,2.81,11.93-7.05,10.22-.24-1.57.35-3.9,0-5.29-1.07-4.29-4.12-1.48-4.93-2.47-1.46-1.78.28-6.25-2.47-8.11l-4.93,7.75c-1.31-9.07-1.75-.58-2.47,2.82-.64,3.03-1.55,6.18-2.11,9.16l-4.93,1.41,6.7-33.13c9.41,3.4,16.85,9.31,22.2,17.62Z"/>
        <g>
          <path class="cls-29" d="M175.63,173.56c.2.82.6,2.19.7,2.82l-2.82,1.76c.5,5.27-5.04,34.99-8.81,35.59-.9.14-2.01-2.96-4.58-.7-1.56-1.41-5.08-4.84-6.34-6.34,3.94-10.82,7.54-19.58,7.75-31.01.05-2.91-2.44-6.9,1.41-8.46.35,1.39-.24,3.71,0,5.29,9.86,1.71,6.15-3.38,7.05-10.22,2.3,3.57,4.6,7.1,5.64,11.28Z"/>
          <path class="cls-2" d="M169.64,185.54c1.26,6.18-3.06,13.26-7.05,17.62l7.05-17.62Z"/>
        </g>
        <path class="cls-2" d="M124.18,191.18c5.81,1.44,5.71,3.97,9.16,8.81-.57.82-5.27.8-6.34,1.06-4.14,1-8.47,1.6-12.33,3.52l-9.51-12.33c5.6-2.01,13.22-2.5,19.03-1.06Z"/>
        <path class="cls-25" d="M116.43,179.9c3.16.47,4.15,4.31,6.34,5.99l-.35,2.47c-1.03.7-2.75-.04-3.17,0-.69.07-1.42-.03-2.11,0-2.76-9.96-24.9-3.46-33.13-3.88-.43-.79,2.28-1.73,2.47-1.76,3.13-.58,28.02-3.11,29.95-2.82Z"/>
        <path class="cls-2" d="M127.71,203.16c3.15.78,2.67,2.02,2.82,2.11-5.37.44-10.31,2.81-14.45,6.34-3.31-6.44,6.96-9.62,11.63-8.46Z"/>
        <path class="cls-15" d="M146.03,176.38c.56-2.98,1.48-6.14,2.11-9.16,1.85,2.33-3.37,24.24-4.58,23.96.67-4.67,1.54-9.92,2.47-14.8Z"/>
        <g>
          <path class="cls-11" d="M44.54,91.8c19.62,1.79,72.52,20.37,83.87,36.3,5.05,7.09,10.73,30.55,10.57,39.12-.03,1.64-.66,3.04-.7,3.52l-2.11-11.63c-.95-1.12-1.88.81-2.11,1.41-1.63,4.23-4.17,22.56,0,25.73-2.11.68-1.99.58-3.88-.7-4.72-3.2-13.32-14.32-17.97-19.03-5.22-5.28-4.84-9.01-14.8-8.11l5.64-2.11c.42-.57-1.07-2.04-1.41-2.47-.35-.45-2.04-1.27-2.47-2.11h-28.9l27.84-1.06c-3.87-8.67-14.1-5.25-21.85-5.99-6.4-.61-15.84-.2-21.5-3.52-4.4-2.59-15.92-26.07-17.97-31.72-.74-2.04-4.72-16.21-4.23-17.27,2.92-1.65,8.66-.66,11.98-.35Z"/>
          <g>
            <path class="cls-41" d="M69.21,120.7c1.03,1.13,3.72,2.35,3.88,4.23l-22.2-1.06c10.35,5.38,26.13-.84,32.07,10.92l-16.56-.35c7.96,3.13,18.39-2.9,22.55,6.34-1,2.8-28.17-.85-32.07-3.17-5.92-3.53-8.89-13.74-11.63-19.73,4.54.89,9.16,2.18,13.74,2.82,2.35.33,8.15,1.31,10.22,0Z"/>
            <path class="cls-26" d="M100.22,115.06c26.34,13.34,33.75,17.76,29.6,51.45-4.08-.09-3.38-9.01-4.23-12.33-1.09-4.28-2.59-8.58-4.23-12.69-3.34,1.12.92,7.82-.7,10.22-1.23-2.01-1.44-4.78-2.11-7.05-1.08-3.64-2.73-9.35-4.23-12.69-.58-1.29-3.89-8.28-4.58-8.46-1.34-.35-2.91,1.98-3.17,2.11-.48.25-2.07-.57-2.11.7-.05-.12-1.12.46-2.11-1.41-1.5-2.83.42-3.87-3.52-6.34-.57-1.41-.36-3.01,1.41-3.52Z"/>
            <path class="cls-26" d="M100.22,115.06c-1.77.51-1.98,2.11-1.41,3.52-.08-.05.06,1.19-1.76.7-.66-.18-1.58-2.38-2.82-2.11-2.61.56-2.84,6.56-9.87-2.82l-1.76,4.93c-4.14-4.5-12.27-8.72-17.62-11.98-4.13-2.52-5.61-4.07-10.57-6.34-5.67-2.6-11.07-5.36-17.62-5.64l-.35-1.41c24.27,2.23,42.57,10.4,63.78,21.14Z"/>
            <path class="cls-10" d="M54.41,100.97l-1.41,4.23c-2.23-.92-4.31-2.18-6.7-2.82-2.86,1.3-.76,1.57-1.06,2.11-5.68,10.39,11.36,10.85,18.32,11.28,2.18,1.81,3.64,2.75,5.64,4.93-2.07,1.31-7.87.33-10.22,0-4.58-.64-9.21-1.93-13.74-2.82-3.27-7.17-6.51-14.89-8.46-22.55,6.55.28,11.95,3.04,17.62,5.64Z"/>
            <path class="cls-10" d="M63.57,115.77c-6.96-.42-24.01-.88-18.32-11.28,7.65,2.24,12.5,6.44,18.32,11.28Z"/>
            <path class="cls-41" d="M64.98,107.31l-2.82,2.82c-2.65-1.91-6.12-3.68-9.16-4.93l1.41-4.23c4.96,2.28,6.44,3.83,10.57,6.34Z"/>
            <path class="cls-10" d="M98.81,118.59c3.94,2.47,2.02,3.51,3.52,6.34-2.83,3.69-2.63-.13-4.93-.35l1.06,14.45-8.46-18.32,2.11,9.16-.7,2.11c-.91.03-7.22-10.95-8.81-12.69l1.76-4.93c7.03,9.38,7.25,3.38,9.87,2.82,1.24-.27,2.16,1.94,2.82,2.11,1.82.49,1.68-.76,1.76-.7Z"/>
            <path class="cls-10" d="M114.31,131.98c-2.32,1.68-5.51,7.87-3.52,10.22-.78,1.02-1.1,1.19-2.11.35l-2.11-16.92c.26-.14,1.83-2.46,3.17-2.11.69.18,4,7.17,4.58,8.46Z"/>
            <g>
              <path class="cls-8" d="M82.6,119.29c1.59,1.73,7.9,12.71,8.81,12.69l.7-2.11-2.11-9.16,8.46,18.32-1.06-14.45c2.3.22,2.11,4.05,4.93.35.99,1.87,2.07,1.29,2.11,1.41,1.43,3.67,1.96,14.35,4.23,16.21,1.01.83,1.33.67,2.11-.35-1.98-2.35,1.2-8.54,3.52-10.22,1.5,3.34,3.15,9.04,4.23,12.69-1.08,2.42,3.48,22.09,4.58,21.85l-2.47-14.8c1.63-2.39-2.64-9.1.7-10.22,1.64,4.1,3.14,8.41,4.23,12.69.84,3.33.15,12.24,4.23,12.33-.24,1.97-.8,10.41-2.47,10.57-7.37-7.87-14.05-16.52-21.5-24.32-11.05-11.56-31.57-33.89-43.7-42.64l2.82-2.82c5.35,3.26,13.48,7.48,17.62,11.98Z"/>
              <path class="cls-3" d="M120.66,151.71l2.47,14.8c-1.1.24-5.66-19.43-4.58-21.85.67,2.27.88,5.04,2.11,7.05Z"/>
              <path class="cls-25" d="M106.56,125.63l2.11,16.92c-2.27-1.86-2.8-12.54-4.23-16.21.04-1.27,1.64-.45,2.11-.7Z"/>
              <path class="cls-10" d="M109.73,143.96c1.3-.26,1.44,1.17.7,2.11-.19-.58-1.17-1.62-.7-2.11Z"/>
            </g>
          </g>
        </g>
      </g>
      <path class="cls-3" d="M267.26,177.08c-.54-.18-1.3,1.1-1.76,1.41-1.33-1.16-.36-2.13-.35-2.82.03-3.51.45-9.46,1.76-12.69l.35,14.1Z"/>
      <g>
        <path class="cls-4" d="M353.24,248.97c-7.31,1.83-14.42,3.47-21.14,7.05-7.13-4.5-2.09-4.22,4.23-6.34,2.41-.81,2.63-1.36,2.82-1.41,2.06-.52,7.98-2.09,8.46-2.11,1.78-.11,4.73,1.15,5.64,2.82Z"/>
        <path class="cls-24" d="M280.65,213.73l-9.16,3.52c-.5-.37-2.39-2.11-2.82-1.06,1.3,2.83.9,5.86,1.41,8.81-1.82-.56-2.19-3.21-3.52-4.93-.85-1.09-1.57-2.63-3.17-2.82l1.06,1.76c-4.25,1.39-2.63,4.56-3.17,5.29-1.7,2.28-6.22-4.15-8.11.35,11.02,4.78,6.56,6.61-1.76,1.76.53,2.6,4.98,1.38,3.17,4.93h-.7c-1.42-.79-2.65-2.36-4.58-2.11,6.33,6.61-1.05,2.39-1.76,7.75-.3-.17-1.28-.58-1.41-.7-6.65-17.94,20.25-36.83,34.54-22.55Z"/>
        <path class="cls-35" d="M320.12,263.07c-.93.44-.66.68-.7.7-6.49-2.46-13.15-3.24-20.09-3.52,1.27,1.81,10.98,6.21,12.33,6.34-.27,1.16-1.37,1.92-2.11,2.82-4.29-2.12-9.36-3.7-14.1-4.23l3.52-1.06c-6.43-4.43-15.45-1.74-22.91-2.47-1.37,2.1.57,2.9,1.06,4.23-5.12-1.33-1.29-6.29-1.41-6.7-.18-.58-.96.1-1.41-1.06,15.32,1.53,31.42-1.32,45.81,4.93Z"/>
        <path class="cls-4" d="M295.45,265.18c4.73.53,9.81,2.11,14.1,4.23-1.17,1.41-2.52,3.45-4.23,4.23-7.49,3.41-9.38-.25-15.86-2.11-5.18-1.49-9.35.15-12.33-4.93l30.66,3.52c-6.52-3.2-14.41-2.53-21.5-3.52-.58-2.85,6.91-1.66,9.16-1.41Z"/>
        <path class="cls-6" d="M286.28,266.59c7.09.99,14.97.32,21.5,3.52l-30.66-3.52c-.09-.16.08-.48,0-.7,1.69.44,6.42.32,9.16.7Z"/>
        <path class="cls-35" d="M316.59,239.11c-6.98-.22-14.22,4.99-15.86,11.98l35.59-1.41c-6.32,2.12-11.36,1.84-4.23,6.34.09,1.18.24,1.35-.7,2.11.38-1.46-3.98-4.09-4.58-4.23-9.67-2.18-33.39,6.17-41.58,3.52-.21-.07-1.4-1.06-.7-1.41,9.84-.58-3.18-5.19-6.7-6.7l7.05.7-6.34-6.34c5.06.39,7.63,5.92,10.22,9.51.53-.26.47-2.86.35-3.52.68-3.51,1.89.48,3.52,2.11.11.11-.29,2.34,1.41,1.06.36-2.05-.51-5.66,0-7.4l3.52,1.41c-.48,1.01-2.4,4.05-1.06,4.93l11.63-13.39c2.97-.57,5.74-1.29,8.46.7Z"/>
        <path class="cls-4" d="M319.41,263.77c-2.72,1.18-4.33,3.15-7.75,2.82-1.35-.13-11.06-4.53-12.33-6.34,6.93.28,13.6,1.06,20.09,3.52Z"/>
        <path class="cls-24" d="M311.66,194c2.7,8.39,3.31,18.57-2.82,25.73l.35-10.92c-.29,3.61-2.24.3-3.17,3.17-.74,2.28,2.3,7.77-3.52,8.11-.11-3.69-.47-7.25-.7-10.92-1.78-.99-.69,3.81-.7,4.58-3.39-5.01-2.88-1.28-3.88-1.41-3.64-.48-1.86-9.48-5.99-10.57.47-2.06,2.04-4.67-1.41-4.93.97-1.39,4.36-4.78,5.64-5.64,7.27-2.32,10.88-2.73,16.21,2.82Z"/>
        <path class="cls-4" d="M280.65,213.73c8.04,8.03,3.96,20.71,7.75,29.95-1.02.92-5.44-5.29-5.64-5.64-.69-1.24-1.08-4.58-2.11-5.99-.74-3.87-6.17-12.61-9.16-14.8l9.16-3.52Z"/>
        <path class="cls-34" d="M266.55,220.08l4.23,15.86-10.22-9.51c-.48,3.15,7.54,6.78,6.7,9.51-.92,2.99-5.6-.43-7.75-1.76-1.22-.75-2.8-3.02-4.93-2.82,1.81-3.55-2.64-2.34-3.17-4.93,8.32,4.85,12.78,3.02,1.76-1.76,1.89-4.51,6.4,1.93,8.11-.35.54-.73-1.08-3.9,3.17-5.29l-1.06-1.76c1.61.19,2.33,1.73,3.17,2.82Z"/>
        <path class="cls-39" d="M271.48,217.26c2.99,2.19,8.42,10.93,9.16,14.8,1.85,9.64-2.02,2.16-2.47,2.11-.25-.03-2.19,2.57-4.93,1.41-2.02-.86-2.81-8.47-3.17-10.57-.51-2.95-.11-5.98-1.41-8.81.43-1.05,2.32.69,2.82,1.06Z"/>
        <path class="cls-4" d="M291.22,201.75c-.04.19-1.9,1.65-2.11,3.17-.49,3.47,3.76,17.7-1.41,15.15-2.7-9.95-4.13-14.3,2.11-23.26,3.45.26,1.88,2.88,1.41,4.93Z"/>
        <path class="cls-24" d="M291.92,244.04c-.01.89.45,2.65-.7,2.82-1.41-7.07-2.28-14.38-3.52-21.5,2.86,4.83,4.3,12.88,4.23,18.68Z"/>
        <path class="cls-38" d="M316.59,239.11c4.33.14,12.88,4.18,16.92,6.34,1.31.7,3.17,3.47,5.64,2.82-.19.05-.41.6-2.82,1.41l-35.59,1.41c1.64-6.99,8.88-12.21,15.86-11.98Z"/>
        <path class="cls-24" d="M356.06,225.01c-4.47-.68-.97,1.58-3.17,2.82-9.27,5.24-24.46,3.32-3.17-2.47-2.78-.45-9.39-1.32-6.7-4.58l-7.75,2.11c-2.78-.18,3.35-6.04,3.88-6.34,7.08-4.1,15.96-.06,16.92,8.46Z"/>
        <path class="cls-24" d="M338.44,216.55l-12.33,7.75,4.58-8.11-9.51,4.58c-1.17-2.68,1.04-4.42-1.06-6.34,3.96-8.54,20.73-8.08,18.32,2.11Z"/>
        <path class="cls-35" d="M334.21,243.33l-.7,2.11c-4.04-2.16-12.59-6.2-16.92-6.34-2.71-2-5.48-1.27-8.46-.7-4.74.91-8.39,3.84-10.57,8.46l-3.52-1.41c1.67-5.74,9.56-9.68,13.39-14.1l2.11,1.41c-.25.76-1.45,2.15-.35,2.82,5.29,3.21,7.44-11.23,8.11-13.39.04-.12,1.02-2.07,1.41-2.11-.14.91-1.09,9.23-.7,9.51l4.93-1.41c-1.18.71-7.82,6.53-7.75,7.05.37,2.73,8.15-1.83,4.58,2.47,5.08.21,10.29,4.54,14.45,5.64Z"/>
        <g>
          <path class="cls-11" d="M347.6,246.15c-.48.03-6.4,1.59-8.46,2.11-2.47.65-4.33-2.12-5.64-2.82l.7-2.11c7.16,1.89,10.51.74,15.86-4.23,3.98-3.7,6.6-8.72,5.99-14.1-.96-8.52-9.84-12.56-16.92-8.46h-.7c2.4-10.19-14.36-10.65-18.32-2.11-1.28,2.76-.98,2.87-1.41,5.64-.39.05-1.37,1.99-1.41,2.11l-7.75,10.57-2.11-1.41c8.65-9.97,14.62-26.53,4.23-37.35-5.33-5.55-8.94-5.14-16.21-2.82,6.54-4.36,7.42-1.55,13.39-3.52,1.37.59,4.19,3.94,5.29,4.23,2.25.59,11.58-.66,14.1-1.41,1.12-.33,3.48-.77,1.76-2.82,1.77,2.53,8.46-1.13,10.92-2.11,1.29-.51,2.01.75,2.11.7,1.94-.97,6.84-6.6,4.93-7.75-6.04,1.07-11.95.07-17.97,0-9.97-.12-20.46-.64-29.95,2.82-1.78-1.19-.28-1.39-.35-2.11,5.9-1.74,49.64-4.77,50.75-2.47.7,1.45-1.93,6.63-2.82,7.75-6.51,8.17-29.67,9.07-30.31,10.57-.17.4,2.78,7.92,3.17,8.11,1.22.56,4.16-2.49,4.58-.35.24,1.21-2.38,2.56-.35,3.88,2.05-2.41,9.24-2.78,11.98-2.11,3.3.8,5.1,5.71,6.34,6.34,1.55.8,6.39.49,8.46,1.41,4.54,2.02,10.49,14.09,9.51,18.68-.88,4.11-11.04,11.19-13.39,15.15Z"/>
          <path class="cls-38" d="M317.3,222.19c-.67,2.16-2.82,16.6-8.11,13.39-1.1-.67.1-2.05.35-2.82l7.75-10.57Z"/>
          <path class="cls-37" d="M320.47,204.57c1.67-.79,2.22,2.95.7,2.82-.14-.01-1.53-2.43-.7-2.82Z"/>
        </g>
        <g>
          <path class="cls-39" d="M253.86,231.35c1.31.73,4.39,2.66,5.64,3.52,1.57,1.09,2.25,2.28,3.52,3.52l-1.76,2.11c1.25.64,2.86-1.33,3.17-1.41,6.89-1.89,15.21-3.33,20.44,2.47.34.38,4.15,7.65,4.23,8.11.11.66.18,3.27-.35,3.52-2.59-3.59-5.15-9.12-10.22-9.51l6.34,6.34-7.05-.7c3.51,1.51,16.53,6.11,6.7,6.7-.69.35.49,1.34.7,1.41,8.19,2.65,31.91-5.71,41.58-3.52.6.14,4.96,2.77,4.58,4.23-6.22,5.03-10.88-1.01-17.97-.7l10.92,4.58c-1.44,2.73-2.95.45-4.23,1.06-14.39-6.25-30.49-3.4-45.81-4.93-5.4-14.02-16.73-15.3-26.78-21.14.71-5.37,8.09-1.14,1.76-7.75,1.93-.24,3.16,1.32,4.58,2.11Z"/>
          <path class="cls-23" d="M259.5,234.17v.7c-1.25-.87-4.33-2.8-5.64-3.52h.7c2.14-.2,3.72,2.07,4.93,2.82Z"/>
          <path class="cls-19" d="M264.44,239.11c-.31.08-1.92,2.05-3.17,1.41l1.76-2.11c.1.1,1.09.63,1.41.7Z"/>
          <path class="cls-16" d="M252.81,234.88c2.71.38,7.36.92,8.11,3.88l-8.11-3.88Z"/>
        </g>
        <path class="cls-34" d="M295.45,265.18c-2.25-.25-9.75-1.44-9.16,1.41-2.74-.38-7.48-.27-9.16-.7-.49-1.33-2.43-2.13-1.06-4.23,7.46.72,16.48-1.96,22.91,2.47l-3.52,1.06Z"/>
        <path class="cls-38" d="M308.13,238.4l-11.63,13.39c-1.34-.88.58-3.92,1.06-4.93,2.18-4.62,5.83-7.55,10.57-8.46Z"/>
        <g>
          <path class="cls-34" d="M307.43,231.35c-3.83,4.42-11.72,8.36-13.39,14.1-.51,1.75.36,5.35,0,7.4-1.7,1.28-1.29-.94-1.41-1.06-.13-1.56-1.13-3.52-1.41-4.93,1.15-.17.69-1.93.7-2.82,6-6.36-2.28-16.77-4.23-23.96,5.17,2.54.92-11.68,1.41-15.15.21-1.53,2.07-2.99,2.11-3.17,4.13,1.09,2.35,10.09,5.99,10.57.99.13.48-3.6,3.88,1.41-.16,7.18-.72,14.3-.7,21.5,3.41-1.79,2.23-11.24,2.11-15.15,5.82-.33,2.78-5.82,3.52-8.11.93-2.87,2.88.44,3.17-3.17l-.35,10.92c6.13-7.15,5.52-17.33,2.82-25.73,10.4,10.83,4.43,27.39-4.23,37.35Z"/>
          <path class="cls-23" d="M302.5,220.08c.12,3.91,1.3,13.36-2.11,15.15-.01-7.19.54-14.31.7-21.5.02-.77-1.08-5.57.7-4.58.23,3.68.59,7.23.7,10.92Z"/>
          <path class="cls-16" d="M295.8,227.83c3.32-1.95,1.34,11.98.7,11.98.06-1.6-1.22-11.68-.7-11.98Z"/>
          <path class="cls-4" d="M291.57,204.57c2.11,1.39.91,6.39.7,8.46-2.11-1.35-.92-6.38-.7-8.46Z"/>
        </g>
        <g>
          <path class="cls-39" d="M338.44,216.55h.7c-.53.31-6.65,6.17-3.88,6.34l7.75-2.11c-2.69,3.26,3.91,4.13,6.7,4.58-21.28,5.79-6.1,7.7,3.17,2.47,2.2-1.24-1.29-3.5,3.17-2.82.6,5.38-2.01,10.4-5.99,14.1-5.35,4.97-8.7,6.12-15.86,4.23-4.16-1.1-9.37-5.43-14.45-5.64,3.57-4.29-4.21.27-4.58-2.47-.07-.52,6.57-6.33,7.75-7.05l-4.93,1.41c-.38-.28.56-8.6.7-9.51.43-2.77.13-2.88,1.41-5.64,2.1,1.92-.11,3.66,1.06,6.34l9.51-4.58-4.58,8.11,12.33-7.75Z"/>
          <path class="cls-16" d="M329.63,229.94c1.39-.11,2.83.08,4.23,0-3.2,1.99-8.87,2.61-13.04,3.17,1.84-1.56,6.35-2.97,8.81-3.17Z"/>
        </g>
      </g>
      <g>
        <path class="cls-4" d="M129.82,260.25c-2.69,2.2-4.88,6.58-7.4,7.75-1.61.75-15.6,4.76-18.68,5.64l-12.69-3.52c.57-6.29,32.66-11.33,38.76-9.87Z"/>
        <path class="cls-22" d="M103.74,273.64c-4.53,1.3-6.01,1.21-11.28.7-.51-.57-.94-1.99-1.41-2.82.02-.46-.04-.95,0-1.41l12.69,3.52Z"/>
        <path class="cls-28" d="M95.29,263.77c-3.97,1.56-6.81,3.22-11.28,1.41-1.21-2.06.54-1.74.7-2.11l10.57.7Z"/>
        <path class="cls-34" d="M111.5,217.96c-3.88-2.29,2.3-9.45-2.82-10.22.98,4.63,1.04,10.46.7,15.15-.62,8.71-2.37,17.56-4.23,26.08-1.17-7.96.9-15.69,2.11-23.61-1.5-1.17-1.82,2.52-2.11,3.52-1.04,3.6-1.13,8.6-1.76,12.33-3.35-4.32-5.71-5.55-6.7-11.28-.67-3.92.43-10.01,0-14.1,6.29.33,2.26-6.45,3.88-10.57l1.41,7.75,1.76-5.29-.7,11.98h2.11c.15-8.4,3.97-14.68,0-22.2,3.06,0,7.51,11.57,7.75,13.74.44,3.93-.61,4.07-1.41,6.7Z"/>
        <path class="cls-4" d="M82.6,232.06c-2.07-1.8-3.86-3.57-5.64-5.64-2.61-3.9-3.88-1.9-4.23-2.11-2.36-1.43-9.93-5.07-11.28-6.34-2.02-1.91-1.73-7.21,1.06-8.46s10.02-.94,12.69.7c4.53,2.79,3.17,15.49,7.4,21.85Z"/>
        <path class="cls-38" d="M76.96,226.42c2.21,3.3-.03,5.68,4.23,6.7h-7.05l7.05,3.17c-1.39-.07-2.85.13-4.23,0-5.78-.53-11.79-2.15-17.62-2.82-1.23-4.06-8.18-2.55-11.28-4.58l13.74,2.47c1.16-4.89-11.1-1.4-8.11-6.34,6.37,3.65,3.47-.35,7.4,0,.2.02,3.32,2.11,3.52,2.11,2.76.12,5.57-2.33,8.46.7l-.35-3.52c.35.21,1.62-1.79,4.23,2.11Z"/>
        <path class="cls-39" d="M95.29,215.85c-1.16,5.6.76,11.9,0,17.62-1.91,0-4.63-3.56-5.64-4.93s-8.17-11.63-8.46-12.33c-1.02-2.53-1.01-10.18-.7-13.04,3.34,2.44,2.46,13.69,5.99,16.21,3,2.14.04-6.83,1.41-7.05l4.23,8.46c3.19-2.15,1.2-4.96,1.06-8.11l2.11,3.17Z"/>
        <path class="cls-39" d="M128.41,223.6c-.74,2.06-2.69,10.89-3.17,11.28-3.4,2.77-9.25.44-8.11-4.93,1.04-.49,1.86,1.42,2.82.35-1.85-1.51.39-12.04,1.76-12.33.43-.09,3.18,3.36,7.05-2.11-.71,2.3-3.5,5.61-.35,7.75Z"/>
        <path class="cls-34" d="M136.16,238.4c-1.1-.59-4.73-1.77-4.93-2.47,2.7-4.27,6.65-7.21,10.57-10.22,8.09.6-3.17,6.71,4.93,5.29l-10.57,7.4Z"/>
        <path class="cls-23" d="M96.69,215.85c.43,4.08-.67,10.18,0,14.1l-1.41,3.52c.76-5.72-1.16-12.02,0-17.62.23-1.1-.8-3.55,1.06-3.52.71.97.23,2.39.35,3.52Z"/>
        <g>
          <path class="cls-35" d="M141.8,225.01v.7c-3.93,3.01-7.87,5.95-10.57,10.22.2.7,3.83,1.87,4.93,2.47,2.46,1.32,6.56,2.31,8.46,4.23.12.12-.11.55,0,.7-9.85-4.26-28.77-13.35-32.77,2.11l7.05-5.64,5.29-1.06c-2.77.36-16.27,8.49-12.33,11.63l4.58-2.47c-4.21,3.19-4.92,2.34-5.64,7.4-.19,1.34-1.29,1.32,1.41,2.11,7.49,2.21,18.83.53,25.37-2.82-1.04,3.17-5.26,3.6-7.75,5.64-6.1-1.46-38.19,3.58-38.76,9.87-.04.46.02.95,0,1.41-.15-.27-4.06.86-1.06-4.23-2.56.02-4.51.4-5.99-2.11,4.47,1.81,7.31.15,11.28-1.41.83-.33,6.5-2.63,6.34-3.17l-6.7.35,3.52-1.41c-4.92-.31-9.49.15-13.74,2.82-.09-.51-.07-.78-.7-.7,2.64-.85,5.05-3.01,8.81-3.52,4.76-.65,10.13,1.06,14.8-.7-10.49.36-21.62-6.07-31.72-4.93-1.76.2-3.33,3.37-6.34,2.82,7.07-3.07-.14-4.03-5.29-5.64-.09-1.11,1.25-.55,1.41-.7l28.54,3.52c0-5.22.41-1.91,3.88-2.47l-5.64-5.64,3.17-1.76c-.92,3.65.82.9,1.41,1.41,3.07,2.69,2.63,4.81,4.93,7.75.82-4.12-3.97-11.77-7.4-13.39.08-7.41-7.82-.78-11.63-.7-2.65.05-1.65-1.4-1.76-1.41l-7.05-3.17h7.05c-4.26-1.02-2.02-3.4-4.23-6.7,1.78,2.07,3.57,3.84,5.64,5.64.31.46-.46,1.16,1.41,2.11,1.48.76,2-.7,2.11-.7.77-.03,2.09,1.89,3.52-.35-1.07-.82-1.6-1.99-2.11-3.17l2.11-1.41c1.01,1.37,3.73,4.93,5.64,4.93l1.41-3.52c.98,5.72,3.35,6.95,6.7,11.28.64-3.74.72-8.73,1.76-12.33.29-1.01.62-4.69,2.11-3.52-1.21,7.93-3.29,15.65-2.11,23.61.13.9-.64,3.9.7,3.88.04-3.78,1.39-7.18,3.52-10.22.8-1.15,6.28-5.07,7.05-6.7.6-1.28-1.01-5.19.7-5.99-1.14,5.37,4.71,7.7,8.11,4.93.48-.39,2.43-9.22,3.17-11.28.11-.3,2.14-7.58,3.52-4.58-2.1,1.78-6.2,15.58-3.88,16.56,5.86-2.52,7.5-7.73,13.74-10.57Z"/>
          <path class="cls-38" d="M95.29,263.77l-10.57-.7c.06-.13.03-.55,0-.7,4.25-2.67,8.83-3.13,13.74-2.82l-3.52,1.41,6.7-.35c.16.54-5.52,2.85-6.34,3.17Z"/>
          <polygon class="cls-16" points="106.91 252.5 107.97 252.85 107.62 253.91 107.27 253.55 106.91 252.5"/>
        </g>
        <g>
          <path class="cls-4" d="M145.33,216.55c6.94,7.9,7.93,19.16-.7,26.08-1.9-1.92-5.99-2.91-8.46-4.23l10.57-7.4c-8.11,1.42,3.15-4.68-4.93-5.29.87-.66,2.17-.71,2.82-1.76-.97-1.12-2.36.85-2.82,1.06-6.24,2.84-7.89,8.05-13.74,10.57-2.32-.98,1.78-14.78,3.88-16.56-1.38-3-3.42,4.28-3.52,4.58-3.15-2.14-.35-5.45.35-7.75-3.87,5.47-6.62,2.02-7.05,2.11-1.37.29-3.62,10.83-1.76,12.33-.96,1.07-1.77-.84-2.82-.35-1.72.8-.1,4.71-.7,5.99-.77,1.63-6.24,5.55-7.05,6.7,1.87-5.92.71-12.91,2.11-18.68,3.89-16.01,23.34-19.34,33.83-7.4Z"/>
          <path class="cls-34" d="M141.8,225.71v-.7c.46-.21,1.85-2.17,2.82-1.06-.65,1.05-1.95,1.1-2.82,1.76Z"/>
          <path class="cls-16" d="M132.64,228.53c-.92,1.96-1.45,4.09-3.17,5.64-1.09-2.44,1.97-4.33,3.17-5.64Z"/>
          <path class="cls-16" d="M141.45,236.29c.65-.02,1.37-.22,1.76.35.16.61-4.67,2.45-4.93,1.41.34-.58,2.99-1.76,3.17-1.76Z"/>
          <path class="cls-16" d="M132.64,228.53c.08-.09-.04-1.72,1.06-2.11,1.3,1.2-1.01,2.01-1.06,2.11Z"/>
        </g>
        <path class="cls-4" d="M105.15,197.52c3.97,7.52.15,13.81,0,22.2h-2.11l.7-11.98-1.76,5.29-1.41-7.75c-1.62,4.13,2.41,10.9-3.88,10.57-.12-1.13.35-2.56-.35-3.52-1.86-.02-.83,2.42-1.06,3.52l-2.11-3.17c.15,3.15,2.13,5.95-1.06,8.11l-4.23-8.46c-1.37.22,1.59,9.19-1.41,7.05-3.53-2.52-2.65-13.77-5.99-16.21.23-2.17,1.58-4.9,2.11-7.05,7.63-6.72,16.9-9.31,22.55,1.41Z"/>
        <path class="cls-16" d="M111.5,217.96c-.51,1.68-.8,3.6-2.11,4.93.33-4.69.28-10.53-.7-15.15,5.11.77-1.06,7.93,2.82,10.22Z"/>
        <g>
          <path class="cls-4" d="M144.62,243.33c1.66,2.22.74,1.31.7,2.82l-11.28.35,11.28.35c-.68,3.49-3.8,5.73-7.75,7.75-6.55,3.35-17.88,5.03-25.37,2.82l29.6-6.7-31.01,4.58c.72-5.06,1.43-4.21,5.64-7.4l-4.58,2.47c-3.94-3.14,9.56-11.27,12.33-11.63l-5.29,1.06-7.05,5.64c4-15.47,22.92-6.38,32.77-2.11Z"/>
          <path class="cls-16" d="M145.33,246.15c0,.23.04.49,0,.7l-11.28-.35,11.28-.35Z"/>
          <path class="cls-16" d="M112.2,257.43c-2.7-.8-1.6-.77-1.41-2.11l31.01-4.58-29.6,6.7Z"/>
          <path class="cls-16" d="M130.17,242.63l3.88,1.76c-.16.64-6.11-.76-3.88-1.76Z"/>
          <path class="cls-36" d="M136.52,243.33c.13-.02,1.57,1.04,2.47,1.06l-3.17.35c-.71-.36.57-1.39.7-1.41Z"/>
        </g>
        <path class="cls-24" d="M61.45,218.67c.96,5.23-5.33-.95-5.99-.7,1.06,6.67-10.55,2.02-1.76,7.05-3,4.95,9.27,1.45,8.11,6.34l-13.74-2.47c3.1,2.03,10.05.52,11.28,4.58-2.02-.23-5.02-1.67-6.7,0l10.22,2.11c-.09,0-.57,1.43-1.06,1.41-5.28-.2-9.92-1.4-15.15-1.41-1.01-1.33-3.92-4.02-4.23-5.29-2.46-10.17,10.98-19.21,19.03-11.63Z"/>
        <path class="cls-38" d="M62.86,235.58c2.35.11,4.23.57,6.34.7-.51,1.69,4.76,2.15,6.34,2.11-10.25,9.29-20.7,8.01-28.9-2.82,5.24,0,9.88,1.21,15.15,1.41.49.02.97-1.41,1.06-1.41Z"/>
        <path class="cls-4" d="M61.45,218.67v-.7c1.34,1.27,8.91,4.92,11.28,6.34l.35,3.52c-2.89-3.03-5.7-.59-8.46-.7-.21,0-3.32-2.1-3.52-2.11-3.93-.35-1.03,3.65-7.4,0-8.79-5.03,2.82-.38,1.76-7.05.66-.24,6.95,5.94,5.99.7Z"/>
        <path class="cls-16" d="M59.34,233.47c5.83.67,11.84,2.29,17.62,2.82l-.7.7c-2.2-.3-4.82-.56-7.05-.7-2.11-.14-3.99-.59-6.34-.7l-10.22-2.11c1.68-1.67,4.67-.23,6.7,0Z"/>
        <path class="cls-4" d="M76.26,236.99c1.12.15,2.56-.37,3.52.35-1.09,1.57-2.71,1.02-4.23,1.06s-6.85-.42-6.34-2.11c2.23.15,4.84.41,7.05.7Z"/>
        <g>
          <path class="cls-21" d="M82.6,196.11c-.54,2.15-1.88,4.88-2.11,7.05-.3,2.85-.32,10.51.7,13.04.28.7,7.43,10.94,8.46,12.33l-2.11,1.41c-1.23-2.81-4.07-7.34-6.34-9.51l4.93,13.04c-.11,0-.63,1.46-2.11.7.38-1.44-.67-1.48-1.41-2.11-4.23-6.36-2.87-19.06-7.4-21.85-2.67-1.65-9.79-2-12.69-.7s-3.08,6.54-1.06,8.46v.7c-8.05-7.58-21.49,1.46-19.03,11.63.31,1.27,3.22,3.96,4.23,5.29,8.19,10.83,18.65,12.11,28.9,2.82,1.52-.03,3.14.51,4.23-1.06-.96-.73-2.41-.2-3.52-.35l.7-.7c1.38.13,2.84-.07,4.23,0,.11,0-.89,1.46,1.76,1.41,3.81-.07,11.71-6.71,11.63.7-8.3-3.92-16.98,2.37-24.32,5.64l1.41,2.82c-5.54-.85-3.6-.11-5.99,2.11-.16.15-1.5-.4-1.41.7-5.09-1.59-10.35-2.23-15.51-3.52.72-.58,2.39-.54,2.11-1.76-5.2-2.54-14.9-12.58-13.39-18.32.11-.43,3.28-7.37,3.52-7.75,4.51-7.06,11.2-4.53,15.15-6.7,1.06-.58,1.98-5.06,5.64-6.34,3.93-1.38,12.78.36,13.39,0,1.35-.79-.45-2.4-.35-2.47,1.01-.7,2.65-.17,2.82-.35,2.47-2.66,1.73-3.52,4.93-6.34Z"/>
          <path class="cls-39" d="M87.53,229.94c.52,1.18,1.04,2.35,2.11,3.17-1.43,2.24-2.76.33-3.52.35l-4.93-13.04c2.27,2.17,5.12,6.71,6.34,9.51Z"/>
          <path class="cls-4" d="M84.01,234.17c-1.87-.96-1.1-1.65-1.41-2.11.73.64,1.79.67,1.41,2.11Z"/>
          <path class="cls-16" d="M83.66,220.08c.46-.06,1.69,1.99.7,2.11-.46.06-1.69-1.99-.7-2.11Z"/>
          <path class="cls-23" d="M90.7,235.58c1.07-.39,1.55,1.04.7,1.41-1.03.45-1.55-1.1-.7-1.41Z"/>
        </g>
        <g>
          <path class="cls-4" d="M64.27,249.68c5.15,1.6,12.36,2.57,5.29,5.64,3.01.55,4.58-2.62,6.34-2.82,10.09-1.13,21.22,5.29,31.72,4.93-4.67,1.76-10.04.06-14.8.7-3.76.51-6.17,2.68-8.81,3.52-10.05,3.22-5.22-2.56-5.99-2.82-1.08-.37-2.44,2.13-2.82,2.11-1.57-.06-11.55-7.44-14.1-8.46-4.04-1.61-10.69-2.96-15.15-4.23.57-.88,1.99-1.44,2.82-2.11,5.15,1.29,10.41,1.94,15.51,3.52Z"/>
          <path class="cls-16" d="M78.72,254.61c.46-.15,2.38-.11,2.47.35-1.48,1.46-4.28.24-2.47-.35Z"/>
        </g>
        <g>
          <path class="cls-38" d="M94.58,238.4c3.43,1.62,8.22,9.28,7.4,13.39-2.3-2.94-1.86-5.06-4.93-7.75-.59-.51-2.33,2.24-1.41-1.41l-3.17,1.76,5.64,5.64c-3.46.55-3.87-2.75-3.88,2.47l-28.54-3.52c2.39-2.23.45-2.97,5.99-2.11l-1.41-2.82c7.33-3.26,16.02-9.56,24.32-5.64Z"/>
          <path class="cls-16" d="M79.43,244.04c1.45.09,5.31.02,5.99,1.76-1.7.63-4.74-.63-5.99-1.76Z"/>
          <path class="cls-23" d="M90.7,246.86c1.19.26,2.37.82,3.17,1.76-.71.73-3.7-.63-3.17-1.76Z"/>
          <polygon class="cls-23" points="88.59 246.15 89.65 246.51 89.29 247.56 88.94 247.21 88.59 246.15"/>
        </g>
      </g>
    </g>
  </g>
</svg>